G04 #@! TF.FileFunction,Legend,Bot*
%FSLAX46Y46*%
G04 Gerber Fmt 4.6, Leading zero omitted, Abs format (unit mm)*
G04 Created by KiCad (PCBNEW (2016-02-08 BZR 6543, Git 5349eb4)-product) date Sun Feb 21 23:51:38 2016*
%MOMM*%
G01*
G04 APERTURE LIST*
%ADD10C,0.100000*%
%ADD11C,0.400000*%
%ADD12C,0.200000*%
%ADD13C,0.150000*%
G04 APERTURE END LIST*
D10*
D11*
X55350000Y-53150000D02*
X55350000Y-51250000D01*
X55550000Y-53150000D02*
X55350000Y-53150000D01*
X55550000Y-51050000D02*
X55550000Y-53150000D01*
X55050000Y-51050000D02*
X55550000Y-51050000D01*
X55050000Y-53450000D02*
X55050000Y-51050000D01*
X55850000Y-53450000D02*
X55050000Y-53450000D01*
X55850000Y-50750000D02*
X55850000Y-53450000D01*
X55050000Y-50750000D02*
X55850000Y-50750000D01*
D12*
X54850000Y-50550000D02*
X56050000Y-50550000D01*
X56050000Y-50550000D02*
X56050000Y-53650000D01*
X56050000Y-53650000D02*
X54850000Y-53650000D01*
X54850000Y-53650000D02*
X54850000Y-50550000D01*
X86550000Y-53650000D02*
X86550000Y-50550000D01*
X87750000Y-53650000D02*
X86550000Y-53650000D01*
X87750000Y-50550000D02*
X87750000Y-53650000D01*
X86550000Y-50550000D02*
X87750000Y-50550000D01*
X52650000Y-50150000D02*
X54150000Y-50150000D01*
X52350000Y-50450000D02*
X52650000Y-50150000D01*
X52350000Y-53850000D02*
X52350000Y-50450000D01*
X52550000Y-54050000D02*
X52350000Y-53850000D01*
X54150000Y-54050000D02*
X52550000Y-54050000D01*
X54350000Y-53850000D02*
X54150000Y-54050000D01*
X54350000Y-50350000D02*
X54350000Y-53850000D01*
X54150000Y-50150000D02*
X54350000Y-50350000D01*
X84050000Y-53850000D02*
X84050000Y-50350000D01*
X85650000Y-53850000D02*
X84050000Y-53850000D01*
X85650000Y-50350000D02*
X85650000Y-53850000D01*
X84050000Y-50350000D02*
X85650000Y-50350000D01*
D11*
X81750000Y-53850000D02*
X81750000Y-50350000D01*
X83350000Y-53850000D02*
X81750000Y-53850000D01*
X83350000Y-50350000D02*
X83350000Y-53850000D01*
X81750000Y-50350000D02*
X83350000Y-50350000D01*
D13*
X94473812Y-32402381D02*
X94473812Y-31402381D01*
X94140478Y-32116667D01*
X93807145Y-31402381D01*
X93807145Y-32402381D01*
X93330955Y-32402381D02*
X93330955Y-31402381D01*
X92854765Y-32402381D02*
X92854765Y-31402381D01*
X92616670Y-31402381D01*
X92473812Y-31450000D01*
X92378574Y-31545238D01*
X92330955Y-31640476D01*
X92283336Y-31830952D01*
X92283336Y-31973810D01*
X92330955Y-32164286D01*
X92378574Y-32259524D01*
X92473812Y-32354762D01*
X92616670Y-32402381D01*
X92854765Y-32402381D01*
X91854765Y-32402381D02*
X91854765Y-31402381D01*
X90092860Y-31450000D02*
X90188098Y-31402381D01*
X90330955Y-31402381D01*
X90473813Y-31450000D01*
X90569051Y-31545238D01*
X90616670Y-31640476D01*
X90664289Y-31830952D01*
X90664289Y-31973810D01*
X90616670Y-32164286D01*
X90569051Y-32259524D01*
X90473813Y-32354762D01*
X90330955Y-32402381D01*
X90235717Y-32402381D01*
X90092860Y-32354762D01*
X90045241Y-32307143D01*
X90045241Y-31973810D01*
X90235717Y-31973810D01*
X89188098Y-31735714D02*
X89188098Y-32402381D01*
X89616670Y-31735714D02*
X89616670Y-32259524D01*
X89569051Y-32354762D01*
X89473813Y-32402381D01*
X89330955Y-32402381D01*
X89235717Y-32354762D01*
X89188098Y-32307143D01*
X88711908Y-32402381D02*
X88711908Y-31735714D01*
X88711908Y-31402381D02*
X88759527Y-31450000D01*
X88711908Y-31497619D01*
X88664289Y-31450000D01*
X88711908Y-31402381D01*
X88711908Y-31497619D01*
X88378575Y-31735714D02*
X87997623Y-31735714D01*
X88235718Y-31402381D02*
X88235718Y-32259524D01*
X88188099Y-32354762D01*
X88092861Y-32402381D01*
X87997623Y-32402381D01*
X87235717Y-32402381D02*
X87235717Y-31878571D01*
X87283336Y-31783333D01*
X87378574Y-31735714D01*
X87569051Y-31735714D01*
X87664289Y-31783333D01*
X87235717Y-32354762D02*
X87330955Y-32402381D01*
X87569051Y-32402381D01*
X87664289Y-32354762D01*
X87711908Y-32259524D01*
X87711908Y-32164286D01*
X87664289Y-32069048D01*
X87569051Y-32021429D01*
X87330955Y-32021429D01*
X87235717Y-31973810D01*
X86759527Y-32402381D02*
X86759527Y-31735714D01*
X86759527Y-31926190D02*
X86711908Y-31830952D01*
X86664289Y-31783333D01*
X86569051Y-31735714D01*
X86473812Y-31735714D01*
X85045240Y-31878571D02*
X85378574Y-31878571D01*
X85378574Y-32402381D02*
X85378574Y-31402381D01*
X84902383Y-31402381D01*
X84521431Y-32402381D02*
X84521431Y-31735714D01*
X84521431Y-31926190D02*
X84473812Y-31830952D01*
X84426193Y-31783333D01*
X84330955Y-31735714D01*
X84235716Y-31735714D01*
X83521430Y-32354762D02*
X83616668Y-32402381D01*
X83807145Y-32402381D01*
X83902383Y-32354762D01*
X83950002Y-32259524D01*
X83950002Y-31878571D01*
X83902383Y-31783333D01*
X83807145Y-31735714D01*
X83616668Y-31735714D01*
X83521430Y-31783333D01*
X83473811Y-31878571D01*
X83473811Y-31973810D01*
X83950002Y-32069048D01*
X83188097Y-31735714D02*
X82807145Y-31735714D01*
X83045240Y-31402381D02*
X83045240Y-32259524D01*
X82997621Y-32354762D01*
X82902383Y-32402381D01*
X82807145Y-32402381D01*
X81711906Y-32021429D02*
X80950001Y-32021429D01*
X79807144Y-31735714D02*
X79569049Y-32402381D01*
X79330953Y-31735714D01*
X78997620Y-31497619D02*
X78950001Y-31450000D01*
X78854763Y-31402381D01*
X78616667Y-31402381D01*
X78521429Y-31450000D01*
X78473810Y-31497619D01*
X78426191Y-31592857D01*
X78426191Y-31688095D01*
X78473810Y-31830952D01*
X79045239Y-32402381D01*
X78426191Y-32402381D01*
X77997620Y-32307143D02*
X77950001Y-32354762D01*
X77997620Y-32402381D01*
X78045239Y-32354762D01*
X77997620Y-32307143D01*
X77997620Y-32402381D01*
X77330954Y-31402381D02*
X77235715Y-31402381D01*
X77140477Y-31450000D01*
X77092858Y-31497619D01*
X77045239Y-31592857D01*
X76997620Y-31783333D01*
X76997620Y-32021429D01*
X77045239Y-32211905D01*
X77092858Y-32307143D01*
X77140477Y-32354762D01*
X77235715Y-32402381D01*
X77330954Y-32402381D01*
X77426192Y-32354762D01*
X77473811Y-32307143D01*
X77521430Y-32211905D01*
X77569049Y-32021429D01*
X77569049Y-31783333D01*
X77521430Y-31592857D01*
X77473811Y-31497619D01*
X77426192Y-31450000D01*
X77330954Y-31402381D01*
X75807144Y-32021429D02*
X75045239Y-32021429D01*
X73854763Y-32354762D02*
X73711906Y-32402381D01*
X73473810Y-32402381D01*
X73378572Y-32354762D01*
X73330953Y-32307143D01*
X73283334Y-32211905D01*
X73283334Y-32116667D01*
X73330953Y-32021429D01*
X73378572Y-31973810D01*
X73473810Y-31926190D01*
X73664287Y-31878571D01*
X73759525Y-31830952D01*
X73807144Y-31783333D01*
X73854763Y-31688095D01*
X73854763Y-31592857D01*
X73807144Y-31497619D01*
X73759525Y-31450000D01*
X73664287Y-31402381D01*
X73426191Y-31402381D01*
X73283334Y-31450000D01*
X72854763Y-31735714D02*
X72854763Y-32735714D01*
X72854763Y-31783333D02*
X72759525Y-31735714D01*
X72569048Y-31735714D01*
X72473810Y-31783333D01*
X72426191Y-31830952D01*
X72378572Y-31926190D01*
X72378572Y-32211905D01*
X72426191Y-32307143D01*
X72473810Y-32354762D01*
X72569048Y-32402381D01*
X72759525Y-32402381D01*
X72854763Y-32354762D01*
X71950001Y-32402381D02*
X71950001Y-31735714D01*
X71950001Y-31926190D02*
X71902382Y-31830952D01*
X71854763Y-31783333D01*
X71759525Y-31735714D01*
X71664286Y-31735714D01*
X71330953Y-32402381D02*
X71330953Y-31735714D01*
X71330953Y-31402381D02*
X71378572Y-31450000D01*
X71330953Y-31497619D01*
X71283334Y-31450000D01*
X71330953Y-31402381D01*
X71330953Y-31497619D01*
X70854763Y-31735714D02*
X70854763Y-32402381D01*
X70854763Y-31830952D02*
X70807144Y-31783333D01*
X70711906Y-31735714D01*
X70569048Y-31735714D01*
X70473810Y-31783333D01*
X70426191Y-31878571D01*
X70426191Y-32402381D01*
X69521429Y-31735714D02*
X69521429Y-32545238D01*
X69569048Y-32640476D01*
X69616667Y-32688095D01*
X69711906Y-32735714D01*
X69854763Y-32735714D01*
X69950001Y-32688095D01*
X69521429Y-32354762D02*
X69616667Y-32402381D01*
X69807144Y-32402381D01*
X69902382Y-32354762D01*
X69950001Y-32307143D01*
X69997620Y-32211905D01*
X69997620Y-31926190D01*
X69950001Y-31830952D01*
X69902382Y-31783333D01*
X69807144Y-31735714D01*
X69616667Y-31735714D01*
X69521429Y-31783333D01*
X68330953Y-31497619D02*
X68283334Y-31450000D01*
X68188096Y-31402381D01*
X67950000Y-31402381D01*
X67854762Y-31450000D01*
X67807143Y-31497619D01*
X67759524Y-31592857D01*
X67759524Y-31688095D01*
X67807143Y-31830952D01*
X68378572Y-32402381D01*
X67759524Y-32402381D01*
X67140477Y-31402381D02*
X67045238Y-31402381D01*
X66950000Y-31450000D01*
X66902381Y-31497619D01*
X66854762Y-31592857D01*
X66807143Y-31783333D01*
X66807143Y-32021429D01*
X66854762Y-32211905D01*
X66902381Y-32307143D01*
X66950000Y-32354762D01*
X67045238Y-32402381D01*
X67140477Y-32402381D01*
X67235715Y-32354762D01*
X67283334Y-32307143D01*
X67330953Y-32211905D01*
X67378572Y-32021429D01*
X67378572Y-31783333D01*
X67330953Y-31592857D01*
X67283334Y-31497619D01*
X67235715Y-31450000D01*
X67140477Y-31402381D01*
X65854762Y-32402381D02*
X66426191Y-32402381D01*
X66140477Y-32402381D02*
X66140477Y-31402381D01*
X66235715Y-31545238D01*
X66330953Y-31640476D01*
X66426191Y-31688095D01*
X64950000Y-31402381D02*
X65426191Y-31402381D01*
X65473810Y-31878571D01*
X65426191Y-31830952D01*
X65330953Y-31783333D01*
X65092857Y-31783333D01*
X64997619Y-31830952D01*
X64950000Y-31878571D01*
X64902381Y-31973810D01*
X64902381Y-32211905D01*
X64950000Y-32307143D01*
X64997619Y-32354762D01*
X65092857Y-32402381D01*
X65330953Y-32402381D01*
X65426191Y-32354762D01*
X65473810Y-32307143D01*
X63711905Y-32021429D02*
X62950000Y-32021429D01*
X61759524Y-32116667D02*
X61283333Y-32116667D01*
X61854762Y-32402381D02*
X61521429Y-31402381D01*
X61188095Y-32402381D01*
X60711905Y-32402381D02*
X60807143Y-32354762D01*
X60854762Y-32259524D01*
X60854762Y-31402381D01*
X59949999Y-32354762D02*
X60045237Y-32402381D01*
X60235714Y-32402381D01*
X60330952Y-32354762D01*
X60378571Y-32259524D01*
X60378571Y-31878571D01*
X60330952Y-31783333D01*
X60235714Y-31735714D01*
X60045237Y-31735714D01*
X59949999Y-31783333D01*
X59902380Y-31878571D01*
X59902380Y-31973810D01*
X60378571Y-32069048D01*
X59569047Y-32402381D02*
X59045237Y-31735714D01*
X59569047Y-31735714D02*
X59045237Y-32402381D01*
X58235713Y-32402381D02*
X58235713Y-31878571D01*
X58283332Y-31783333D01*
X58378570Y-31735714D01*
X58569047Y-31735714D01*
X58664285Y-31783333D01*
X58235713Y-32354762D02*
X58330951Y-32402381D01*
X58569047Y-32402381D01*
X58664285Y-32354762D01*
X58711904Y-32259524D01*
X58711904Y-32164286D01*
X58664285Y-32069048D01*
X58569047Y-32021429D01*
X58330951Y-32021429D01*
X58235713Y-31973810D01*
X57759523Y-31735714D02*
X57759523Y-32402381D01*
X57759523Y-31830952D02*
X57711904Y-31783333D01*
X57616666Y-31735714D01*
X57473808Y-31735714D01*
X57378570Y-31783333D01*
X57330951Y-31878571D01*
X57330951Y-32402381D01*
X56426189Y-32402381D02*
X56426189Y-31402381D01*
X56426189Y-32354762D02*
X56521427Y-32402381D01*
X56711904Y-32402381D01*
X56807142Y-32354762D01*
X56854761Y-32307143D01*
X56902380Y-32211905D01*
X56902380Y-31926190D01*
X56854761Y-31830952D01*
X56807142Y-31783333D01*
X56711904Y-31735714D01*
X56521427Y-31735714D01*
X56426189Y-31783333D01*
X55949999Y-32402381D02*
X55949999Y-31735714D01*
X55949999Y-31926190D02*
X55902380Y-31830952D01*
X55854761Y-31783333D01*
X55759523Y-31735714D01*
X55664284Y-31735714D01*
X54902379Y-31735714D02*
X54902379Y-32402381D01*
X55330951Y-31735714D02*
X55330951Y-32259524D01*
X55283332Y-32354762D01*
X55188094Y-32402381D01*
X55045236Y-32402381D01*
X54949998Y-32354762D01*
X54902379Y-32307143D01*
X53664284Y-32402381D02*
X53664284Y-31402381D01*
X53330950Y-32116667D01*
X52997617Y-31402381D01*
X52997617Y-32402381D01*
X52521427Y-32307143D02*
X52473808Y-32354762D01*
X52521427Y-32402381D01*
X52569046Y-32354762D01*
X52521427Y-32307143D01*
X52521427Y-32402381D01*
X51330951Y-32354762D02*
X51188094Y-32402381D01*
X50949998Y-32402381D01*
X50854760Y-32354762D01*
X50807141Y-32307143D01*
X50759522Y-32211905D01*
X50759522Y-32116667D01*
X50807141Y-32021429D01*
X50854760Y-31973810D01*
X50949998Y-31926190D01*
X51140475Y-31878571D01*
X51235713Y-31830952D01*
X51283332Y-31783333D01*
X51330951Y-31688095D01*
X51330951Y-31592857D01*
X51283332Y-31497619D01*
X51235713Y-31450000D01*
X51140475Y-31402381D01*
X50902379Y-31402381D01*
X50759522Y-31450000D01*
X50473808Y-31735714D02*
X50092856Y-31735714D01*
X50330951Y-31402381D02*
X50330951Y-32259524D01*
X50283332Y-32354762D01*
X50188094Y-32402381D01*
X50092856Y-32402381D01*
X49330950Y-32402381D02*
X49330950Y-31878571D01*
X49378569Y-31783333D01*
X49473807Y-31735714D01*
X49664284Y-31735714D01*
X49759522Y-31783333D01*
X49330950Y-32354762D02*
X49426188Y-32402381D01*
X49664284Y-32402381D01*
X49759522Y-32354762D01*
X49807141Y-32259524D01*
X49807141Y-32164286D01*
X49759522Y-32069048D01*
X49664284Y-32021429D01*
X49426188Y-32021429D01*
X49330950Y-31973810D01*
X48854760Y-31735714D02*
X48854760Y-32402381D01*
X48854760Y-31830952D02*
X48807141Y-31783333D01*
X48711903Y-31735714D01*
X48569045Y-31735714D01*
X48473807Y-31783333D01*
X48426188Y-31878571D01*
X48426188Y-32402381D01*
D10*
X92083333Y-36526667D02*
X92416666Y-36526667D01*
X92416666Y-35826667D01*
X91849999Y-36526667D02*
X91849999Y-36060000D01*
X91849999Y-35826667D02*
X91883333Y-35860000D01*
X91849999Y-35893333D01*
X91816666Y-35860000D01*
X91849999Y-35826667D01*
X91849999Y-35893333D01*
X91516666Y-36060000D02*
X91516666Y-36526667D01*
X91516666Y-36126667D02*
X91483333Y-36093333D01*
X91416666Y-36060000D01*
X91316666Y-36060000D01*
X91250000Y-36093333D01*
X91216666Y-36160000D01*
X91216666Y-36526667D01*
X90883333Y-36526667D02*
X90883333Y-35826667D01*
X90816667Y-36260000D02*
X90616667Y-36526667D01*
X90616667Y-36060000D02*
X90883333Y-36326667D01*
X89883333Y-35826667D02*
X89483333Y-35826667D01*
X89683333Y-36526667D02*
X89683333Y-35826667D01*
X89250000Y-36526667D02*
X89250000Y-35826667D01*
X88983334Y-35826667D01*
X88916667Y-35860000D01*
X88883334Y-35893333D01*
X88850000Y-35960000D01*
X88850000Y-36060000D01*
X88883334Y-36126667D01*
X88916667Y-36160000D01*
X88983334Y-36193333D01*
X89250000Y-36193333D01*
X92716665Y-37540000D02*
X92749999Y-37573333D01*
X92849999Y-37606667D01*
X92916665Y-37606667D01*
X93016665Y-37573333D01*
X93083332Y-37506667D01*
X93116665Y-37440000D01*
X93149999Y-37306667D01*
X93149999Y-37206667D01*
X93116665Y-37073333D01*
X93083332Y-37006667D01*
X93016665Y-36940000D01*
X92916665Y-36906667D01*
X92849999Y-36906667D01*
X92749999Y-36940000D01*
X92716665Y-36973333D01*
X92316665Y-37606667D02*
X92383332Y-37573333D01*
X92416665Y-37540000D01*
X92449999Y-37473333D01*
X92449999Y-37273333D01*
X92416665Y-37206667D01*
X92383332Y-37173333D01*
X92316665Y-37140000D01*
X92216665Y-37140000D01*
X92149999Y-37173333D01*
X92116665Y-37206667D01*
X92083332Y-37273333D01*
X92083332Y-37473333D01*
X92116665Y-37540000D01*
X92149999Y-37573333D01*
X92216665Y-37606667D01*
X92316665Y-37606667D01*
X91783332Y-37140000D02*
X91783332Y-37606667D01*
X91783332Y-37206667D02*
X91749999Y-37173333D01*
X91683332Y-37140000D01*
X91583332Y-37140000D01*
X91516666Y-37173333D01*
X91483332Y-37240000D01*
X91483332Y-37606667D01*
X91149999Y-37140000D02*
X91149999Y-37606667D01*
X91149999Y-37206667D02*
X91116666Y-37173333D01*
X91049999Y-37140000D01*
X90949999Y-37140000D01*
X90883333Y-37173333D01*
X90849999Y-37240000D01*
X90849999Y-37606667D01*
X90250000Y-37573333D02*
X90316666Y-37606667D01*
X90450000Y-37606667D01*
X90516666Y-37573333D01*
X90550000Y-37506667D01*
X90550000Y-37240000D01*
X90516666Y-37173333D01*
X90450000Y-37140000D01*
X90316666Y-37140000D01*
X90250000Y-37173333D01*
X90216666Y-37240000D01*
X90216666Y-37306667D01*
X90550000Y-37373333D01*
X89616666Y-37573333D02*
X89683333Y-37606667D01*
X89816666Y-37606667D01*
X89883333Y-37573333D01*
X89916666Y-37540000D01*
X89950000Y-37473333D01*
X89950000Y-37273333D01*
X89916666Y-37206667D01*
X89883333Y-37173333D01*
X89816666Y-37140000D01*
X89683333Y-37140000D01*
X89616666Y-37173333D01*
X89416666Y-37140000D02*
X89150000Y-37140000D01*
X89316666Y-36906667D02*
X89316666Y-37506667D01*
X89283333Y-37573333D01*
X89216666Y-37606667D01*
X89150000Y-37606667D01*
X88816666Y-37606667D02*
X88883333Y-37573333D01*
X88916666Y-37540000D01*
X88950000Y-37473333D01*
X88950000Y-37273333D01*
X88916666Y-37206667D01*
X88883333Y-37173333D01*
X88816666Y-37140000D01*
X88716666Y-37140000D01*
X88650000Y-37173333D01*
X88616666Y-37206667D01*
X88583333Y-37273333D01*
X88583333Y-37473333D01*
X88616666Y-37540000D01*
X88650000Y-37573333D01*
X88716666Y-37606667D01*
X88816666Y-37606667D01*
X88283333Y-37606667D02*
X88283333Y-37140000D01*
X88283333Y-37273333D02*
X88250000Y-37206667D01*
X88216667Y-37173333D01*
X88150000Y-37140000D01*
X88083333Y-37140000D01*
D13*
X37000000Y-36750000D02*
X36300000Y-36750000D01*
X36300000Y-37950000D02*
X37000000Y-37950000D01*
X45300000Y-36150000D02*
X44600000Y-36150000D01*
X44600000Y-37350000D02*
X45300000Y-37350000D01*
X55800000Y-36150000D02*
X55100000Y-36150000D01*
X55100000Y-37350000D02*
X55800000Y-37350000D01*
X66300000Y-36150000D02*
X65600000Y-36150000D01*
X65600000Y-37350000D02*
X66300000Y-37350000D01*
X76800000Y-36150000D02*
X76100000Y-36150000D01*
X76100000Y-37350000D02*
X76800000Y-37350000D01*
X85550000Y-35700000D02*
X85550000Y-36400000D01*
X86750000Y-36400000D02*
X86750000Y-35700000D01*
X59500000Y-43950000D02*
X58800000Y-43950000D01*
X58800000Y-45150000D02*
X59500000Y-45150000D01*
X59850000Y-49800000D02*
X59850000Y-50500000D01*
X61050000Y-50500000D02*
X61050000Y-49800000D01*
X59500000Y-45450000D02*
X58800000Y-45450000D01*
X58800000Y-46650000D02*
X59500000Y-46650000D01*
X59650000Y-46975000D02*
X58650000Y-46975000D01*
X58650000Y-48325000D02*
X59650000Y-48325000D01*
X85925000Y-43450000D02*
X85925000Y-42450000D01*
X84575000Y-42450000D02*
X84575000Y-43450000D01*
X84225000Y-43450000D02*
X84225000Y-42450000D01*
X82875000Y-42450000D02*
X82875000Y-43450000D01*
X42250000Y-40125000D02*
X43250000Y-40125000D01*
X43250000Y-38775000D02*
X42250000Y-38775000D01*
X52750000Y-40125000D02*
X53750000Y-40125000D01*
X53750000Y-38775000D02*
X52750000Y-38775000D01*
X59675000Y-39650000D02*
X59675000Y-40650000D01*
X61025000Y-40650000D02*
X61025000Y-39650000D01*
X74475000Y-40050000D02*
X74475000Y-41050000D01*
X75825000Y-41050000D02*
X75825000Y-40050000D01*
X81350000Y-38675000D02*
X80350000Y-38675000D01*
X80350000Y-40025000D02*
X81350000Y-40025000D01*
X81350000Y-40475000D02*
X80350000Y-40475000D01*
X80350000Y-41825000D02*
X81350000Y-41825000D01*
D10*
X82600000Y-46200000D02*
X82600000Y-46350000D01*
X85100000Y-46250000D02*
X85100000Y-46350000D01*
X85100000Y-48700000D02*
X85100000Y-48550000D01*
X82600000Y-48700000D02*
X82600000Y-48550000D01*
D12*
X83850000Y-46450000D02*
X83850000Y-45950000D01*
X83850000Y-48450000D02*
X83850000Y-48950000D01*
D10*
X84200000Y-46200000D02*
X85100000Y-46200000D01*
X82600000Y-46200000D02*
X83500000Y-46200000D01*
X82600000Y-48700000D02*
X83500000Y-48700000D01*
X84200000Y-48700000D02*
X85100000Y-48700000D01*
X77400000Y-46200000D02*
X77400000Y-46350000D01*
X79900000Y-46250000D02*
X79900000Y-46350000D01*
X79900000Y-48700000D02*
X79900000Y-48550000D01*
X77400000Y-48700000D02*
X77400000Y-48550000D01*
D12*
X78650000Y-46450000D02*
X78650000Y-45950000D01*
X78650000Y-48450000D02*
X78650000Y-48950000D01*
D10*
X79000000Y-46200000D02*
X79900000Y-46200000D01*
X77400000Y-46200000D02*
X78300000Y-46200000D01*
X77400000Y-48700000D02*
X78300000Y-48700000D01*
X79000000Y-48700000D02*
X79900000Y-48700000D01*
X53500000Y-46200000D02*
X53500000Y-46350000D01*
X56000000Y-46250000D02*
X56000000Y-46350000D01*
X56000000Y-48700000D02*
X56000000Y-48550000D01*
X53500000Y-48700000D02*
X53500000Y-48550000D01*
D12*
X54750000Y-46450000D02*
X54750000Y-45950000D01*
X54750000Y-48450000D02*
X54750000Y-48950000D01*
D10*
X55100000Y-46200000D02*
X56000000Y-46200000D01*
X53500000Y-46200000D02*
X54400000Y-46200000D01*
X53500000Y-48700000D02*
X54400000Y-48700000D01*
X55100000Y-48700000D02*
X56000000Y-48700000D01*
X48300000Y-46200000D02*
X48300000Y-46350000D01*
X50800000Y-46250000D02*
X50800000Y-46350000D01*
X50800000Y-48700000D02*
X50800000Y-48550000D01*
X48300000Y-48700000D02*
X48300000Y-48550000D01*
D12*
X49550000Y-46450000D02*
X49550000Y-45950000D01*
X49550000Y-48450000D02*
X49550000Y-48950000D01*
D10*
X49900000Y-46200000D02*
X50800000Y-46200000D01*
X48300000Y-46200000D02*
X49200000Y-46200000D01*
X48300000Y-48700000D02*
X49200000Y-48700000D01*
X49900000Y-48700000D02*
X50800000Y-48700000D01*
X38200000Y-43000000D02*
X38200000Y-43150000D01*
X40700000Y-43050000D02*
X40700000Y-43150000D01*
X40700000Y-45500000D02*
X40700000Y-45350000D01*
X38200000Y-45500000D02*
X38200000Y-45350000D01*
D12*
X39450000Y-43250000D02*
X39450000Y-42750000D01*
X39450000Y-45250000D02*
X39450000Y-45750000D01*
D10*
X39800000Y-43000000D02*
X40700000Y-43000000D01*
X38200000Y-43000000D02*
X39100000Y-43000000D01*
X38200000Y-45500000D02*
X39100000Y-45500000D01*
X39800000Y-45500000D02*
X40700000Y-45500000D01*
X33000000Y-43000000D02*
X33000000Y-43150000D01*
X35500000Y-43050000D02*
X35500000Y-43150000D01*
X35500000Y-45500000D02*
X35500000Y-45350000D01*
X33000000Y-45500000D02*
X33000000Y-45350000D01*
D12*
X34250000Y-43250000D02*
X34250000Y-42750000D01*
X34250000Y-45250000D02*
X34250000Y-45750000D01*
D10*
X34600000Y-43000000D02*
X35500000Y-43000000D01*
X33000000Y-43000000D02*
X33900000Y-43000000D01*
X33000000Y-45500000D02*
X33900000Y-45500000D01*
X34600000Y-45500000D02*
X35500000Y-45500000D01*
D13*
X86950000Y-41225000D02*
X88650000Y-41225000D01*
X88650000Y-41225000D02*
X88650000Y-38025000D01*
X88650000Y-38025000D02*
X92550000Y-38025000D01*
X92550000Y-38025000D02*
X92550000Y-52475000D01*
X92550000Y-52475000D02*
X88650000Y-52475000D01*
X88650000Y-52475000D02*
X88650000Y-51475000D01*
X86450000Y-42125000D02*
X85950000Y-41625000D01*
X85950000Y-41625000D02*
X85950000Y-42625000D01*
X85950000Y-42625000D02*
X86450000Y-42125000D01*
X39550000Y-50250000D02*
X39550000Y-51250000D01*
X37850000Y-51250000D02*
X37850000Y-50250000D01*
X43850000Y-51250000D02*
X43850000Y-50250000D01*
X45550000Y-50250000D02*
X45550000Y-51250000D01*
X42999160Y-51400240D02*
X42950900Y-51400240D01*
X40200180Y-50699200D02*
X40200180Y-51400240D01*
X40200180Y-51400240D02*
X40449100Y-51400240D01*
X42999160Y-51400240D02*
X43199820Y-51400240D01*
X43199820Y-51400240D02*
X43199820Y-50699200D01*
X73650000Y-42800000D02*
X73650000Y-42100000D01*
X72450000Y-42100000D02*
X72450000Y-42800000D01*
X63850000Y-39200000D02*
X63850000Y-38500000D01*
X62650000Y-38500000D02*
X62650000Y-39200000D01*
X73800000Y-48350000D02*
X74500000Y-48350000D01*
X74500000Y-47150000D02*
X73800000Y-47150000D01*
X40250000Y-46975000D02*
X39250000Y-46975000D01*
X39250000Y-48325000D02*
X40250000Y-48325000D01*
X66050000Y-53425000D02*
X67050000Y-53425000D01*
X67050000Y-52075000D02*
X66050000Y-52075000D01*
X63325000Y-50175000D02*
X63325000Y-49875000D01*
X70575000Y-50175000D02*
X70575000Y-49875000D01*
X70575000Y-42925000D02*
X70575000Y-43225000D01*
X63325000Y-42925000D02*
X63325000Y-43225000D01*
X63325000Y-50175000D02*
X63625000Y-50175000D01*
X63325000Y-42925000D02*
X63625000Y-42925000D01*
X70575000Y-42925000D02*
X70275000Y-42925000D01*
X70575000Y-50175000D02*
X70275000Y-50175000D01*
X63325000Y-49875000D02*
X62100000Y-49875000D01*
X62050000Y-53425000D02*
X63050000Y-53425000D01*
X63050000Y-52075000D02*
X62050000Y-52075000D01*
X36816666Y-35807143D02*
X36864285Y-35854762D01*
X37007142Y-35902381D01*
X37102380Y-35902381D01*
X37245238Y-35854762D01*
X37340476Y-35759524D01*
X37388095Y-35664286D01*
X37435714Y-35473810D01*
X37435714Y-35330952D01*
X37388095Y-35140476D01*
X37340476Y-35045238D01*
X37245238Y-34950000D01*
X37102380Y-34902381D01*
X37007142Y-34902381D01*
X36864285Y-34950000D01*
X36816666Y-34997619D01*
X36197619Y-34902381D02*
X36102380Y-34902381D01*
X36007142Y-34950000D01*
X35959523Y-34997619D01*
X35911904Y-35092857D01*
X35864285Y-35283333D01*
X35864285Y-35521429D01*
X35911904Y-35711905D01*
X35959523Y-35807143D01*
X36007142Y-35854762D01*
X36102380Y-35902381D01*
X36197619Y-35902381D01*
X36292857Y-35854762D01*
X36340476Y-35807143D01*
X36388095Y-35711905D01*
X36435714Y-35521429D01*
X36435714Y-35283333D01*
X36388095Y-35092857D01*
X36340476Y-34997619D01*
X36292857Y-34950000D01*
X36197619Y-34902381D01*
X45116666Y-35607143D02*
X45164285Y-35654762D01*
X45307142Y-35702381D01*
X45402380Y-35702381D01*
X45545238Y-35654762D01*
X45640476Y-35559524D01*
X45688095Y-35464286D01*
X45735714Y-35273810D01*
X45735714Y-35130952D01*
X45688095Y-34940476D01*
X45640476Y-34845238D01*
X45545238Y-34750000D01*
X45402380Y-34702381D01*
X45307142Y-34702381D01*
X45164285Y-34750000D01*
X45116666Y-34797619D01*
X44164285Y-35702381D02*
X44735714Y-35702381D01*
X44450000Y-35702381D02*
X44450000Y-34702381D01*
X44545238Y-34845238D01*
X44640476Y-34940476D01*
X44735714Y-34988095D01*
X55616666Y-35607143D02*
X55664285Y-35654762D01*
X55807142Y-35702381D01*
X55902380Y-35702381D01*
X56045238Y-35654762D01*
X56140476Y-35559524D01*
X56188095Y-35464286D01*
X56235714Y-35273810D01*
X56235714Y-35130952D01*
X56188095Y-34940476D01*
X56140476Y-34845238D01*
X56045238Y-34750000D01*
X55902380Y-34702381D01*
X55807142Y-34702381D01*
X55664285Y-34750000D01*
X55616666Y-34797619D01*
X55235714Y-34797619D02*
X55188095Y-34750000D01*
X55092857Y-34702381D01*
X54854761Y-34702381D01*
X54759523Y-34750000D01*
X54711904Y-34797619D01*
X54664285Y-34892857D01*
X54664285Y-34988095D01*
X54711904Y-35130952D01*
X55283333Y-35702381D01*
X54664285Y-35702381D01*
X66116666Y-35607143D02*
X66164285Y-35654762D01*
X66307142Y-35702381D01*
X66402380Y-35702381D01*
X66545238Y-35654762D01*
X66640476Y-35559524D01*
X66688095Y-35464286D01*
X66735714Y-35273810D01*
X66735714Y-35130952D01*
X66688095Y-34940476D01*
X66640476Y-34845238D01*
X66545238Y-34750000D01*
X66402380Y-34702381D01*
X66307142Y-34702381D01*
X66164285Y-34750000D01*
X66116666Y-34797619D01*
X65783333Y-34702381D02*
X65164285Y-34702381D01*
X65497619Y-35083333D01*
X65354761Y-35083333D01*
X65259523Y-35130952D01*
X65211904Y-35178571D01*
X65164285Y-35273810D01*
X65164285Y-35511905D01*
X65211904Y-35607143D01*
X65259523Y-35654762D01*
X65354761Y-35702381D01*
X65640476Y-35702381D01*
X65735714Y-35654762D01*
X65783333Y-35607143D01*
X76616666Y-35607143D02*
X76664285Y-35654762D01*
X76807142Y-35702381D01*
X76902380Y-35702381D01*
X77045238Y-35654762D01*
X77140476Y-35559524D01*
X77188095Y-35464286D01*
X77235714Y-35273810D01*
X77235714Y-35130952D01*
X77188095Y-34940476D01*
X77140476Y-34845238D01*
X77045238Y-34750000D01*
X76902380Y-34702381D01*
X76807142Y-34702381D01*
X76664285Y-34750000D01*
X76616666Y-34797619D01*
X75759523Y-35035714D02*
X75759523Y-35702381D01*
X75997619Y-34654762D02*
X76235714Y-35369048D01*
X75616666Y-35369048D01*
X86216666Y-34207143D02*
X86264285Y-34254762D01*
X86407142Y-34302381D01*
X86502380Y-34302381D01*
X86645238Y-34254762D01*
X86740476Y-34159524D01*
X86788095Y-34064286D01*
X86835714Y-33873810D01*
X86835714Y-33730952D01*
X86788095Y-33540476D01*
X86740476Y-33445238D01*
X86645238Y-33350000D01*
X86502380Y-33302381D01*
X86407142Y-33302381D01*
X86264285Y-33350000D01*
X86216666Y-33397619D01*
X85311904Y-33302381D02*
X85788095Y-33302381D01*
X85835714Y-33778571D01*
X85788095Y-33730952D01*
X85692857Y-33683333D01*
X85454761Y-33683333D01*
X85359523Y-33730952D01*
X85311904Y-33778571D01*
X85264285Y-33873810D01*
X85264285Y-34111905D01*
X85311904Y-34207143D01*
X85359523Y-34254762D01*
X85454761Y-34302381D01*
X85692857Y-34302381D01*
X85788095Y-34254762D01*
X85835714Y-34207143D01*
X59316666Y-43507143D02*
X59364285Y-43554762D01*
X59507142Y-43602381D01*
X59602380Y-43602381D01*
X59745238Y-43554762D01*
X59840476Y-43459524D01*
X59888095Y-43364286D01*
X59935714Y-43173810D01*
X59935714Y-43030952D01*
X59888095Y-42840476D01*
X59840476Y-42745238D01*
X59745238Y-42650000D01*
X59602380Y-42602381D01*
X59507142Y-42602381D01*
X59364285Y-42650000D01*
X59316666Y-42697619D01*
X58459523Y-42602381D02*
X58650000Y-42602381D01*
X58745238Y-42650000D01*
X58792857Y-42697619D01*
X58888095Y-42840476D01*
X58935714Y-43030952D01*
X58935714Y-43411905D01*
X58888095Y-43507143D01*
X58840476Y-43554762D01*
X58745238Y-43602381D01*
X58554761Y-43602381D01*
X58459523Y-43554762D01*
X58411904Y-43507143D01*
X58364285Y-43411905D01*
X58364285Y-43173810D01*
X58411904Y-43078571D01*
X58459523Y-43030952D01*
X58554761Y-42983333D01*
X58745238Y-42983333D01*
X58840476Y-43030952D01*
X58888095Y-43078571D01*
X58935714Y-43173810D01*
X58907143Y-49983334D02*
X58954762Y-49935715D01*
X59002381Y-49792858D01*
X59002381Y-49697620D01*
X58954762Y-49554762D01*
X58859524Y-49459524D01*
X58764286Y-49411905D01*
X58573810Y-49364286D01*
X58430952Y-49364286D01*
X58240476Y-49411905D01*
X58145238Y-49459524D01*
X58050000Y-49554762D01*
X58002381Y-49697620D01*
X58002381Y-49792858D01*
X58050000Y-49935715D01*
X58097619Y-49983334D01*
X58002381Y-50316667D02*
X58002381Y-50983334D01*
X59002381Y-50554762D01*
X57407143Y-44807143D02*
X57454762Y-44759524D01*
X57502381Y-44616667D01*
X57502381Y-44521429D01*
X57454762Y-44378571D01*
X57359524Y-44283333D01*
X57264286Y-44235714D01*
X57073810Y-44188095D01*
X56930952Y-44188095D01*
X56740476Y-44235714D01*
X56645238Y-44283333D01*
X56550000Y-44378571D01*
X56502381Y-44521429D01*
X56502381Y-44616667D01*
X56550000Y-44759524D01*
X56597619Y-44807143D01*
X57502381Y-45759524D02*
X57502381Y-45188095D01*
X57502381Y-45473809D02*
X56502381Y-45473809D01*
X56645238Y-45378571D01*
X56740476Y-45283333D01*
X56788095Y-45188095D01*
X57502381Y-46711905D02*
X57502381Y-46140476D01*
X57502381Y-46426190D02*
X56502381Y-46426190D01*
X56645238Y-46330952D01*
X56740476Y-46235714D01*
X56788095Y-46140476D01*
X57602381Y-47683334D02*
X57126190Y-47350000D01*
X57602381Y-47111905D02*
X56602381Y-47111905D01*
X56602381Y-47492858D01*
X56650000Y-47588096D01*
X56697619Y-47635715D01*
X56792857Y-47683334D01*
X56935714Y-47683334D01*
X57030952Y-47635715D01*
X57078571Y-47588096D01*
X57126190Y-47492858D01*
X57126190Y-47111905D01*
X56602381Y-48540477D02*
X56602381Y-48350000D01*
X56650000Y-48254762D01*
X56697619Y-48207143D01*
X56840476Y-48111905D01*
X57030952Y-48064286D01*
X57411905Y-48064286D01*
X57507143Y-48111905D01*
X57554762Y-48159524D01*
X57602381Y-48254762D01*
X57602381Y-48445239D01*
X57554762Y-48540477D01*
X57507143Y-48588096D01*
X57411905Y-48635715D01*
X57173810Y-48635715D01*
X57078571Y-48588096D01*
X57030952Y-48540477D01*
X56983333Y-48445239D01*
X56983333Y-48254762D01*
X57030952Y-48159524D01*
X57078571Y-48111905D01*
X57173810Y-48064286D01*
X85702381Y-40383334D02*
X85226190Y-40050000D01*
X85702381Y-39811905D02*
X84702381Y-39811905D01*
X84702381Y-40192858D01*
X84750000Y-40288096D01*
X84797619Y-40335715D01*
X84892857Y-40383334D01*
X85035714Y-40383334D01*
X85130952Y-40335715D01*
X85178571Y-40288096D01*
X85226190Y-40192858D01*
X85226190Y-39811905D01*
X84702381Y-40716667D02*
X84702381Y-41383334D01*
X85702381Y-40954762D01*
X84002381Y-40383334D02*
X83526190Y-40050000D01*
X84002381Y-39811905D02*
X83002381Y-39811905D01*
X83002381Y-40192858D01*
X83050000Y-40288096D01*
X83097619Y-40335715D01*
X83192857Y-40383334D01*
X83335714Y-40383334D01*
X83430952Y-40335715D01*
X83478571Y-40288096D01*
X83526190Y-40192858D01*
X83526190Y-39811905D01*
X83430952Y-40954762D02*
X83383333Y-40859524D01*
X83335714Y-40811905D01*
X83240476Y-40764286D01*
X83192857Y-40764286D01*
X83097619Y-40811905D01*
X83050000Y-40859524D01*
X83002381Y-40954762D01*
X83002381Y-41145239D01*
X83050000Y-41240477D01*
X83097619Y-41288096D01*
X83192857Y-41335715D01*
X83240476Y-41335715D01*
X83335714Y-41288096D01*
X83383333Y-41240477D01*
X83430952Y-41145239D01*
X83430952Y-40954762D01*
X83478571Y-40859524D01*
X83526190Y-40811905D01*
X83621429Y-40764286D01*
X83811905Y-40764286D01*
X83907143Y-40811905D01*
X83954762Y-40859524D01*
X84002381Y-40954762D01*
X84002381Y-41145239D01*
X83954762Y-41240477D01*
X83907143Y-41288096D01*
X83811905Y-41335715D01*
X83621429Y-41335715D01*
X83526190Y-41288096D01*
X83478571Y-41240477D01*
X83430952Y-41145239D01*
X45516666Y-40002381D02*
X45850000Y-39526190D01*
X46088095Y-40002381D02*
X46088095Y-39002381D01*
X45707142Y-39002381D01*
X45611904Y-39050000D01*
X45564285Y-39097619D01*
X45516666Y-39192857D01*
X45516666Y-39335714D01*
X45564285Y-39430952D01*
X45611904Y-39478571D01*
X45707142Y-39526190D01*
X46088095Y-39526190D01*
X44897619Y-39002381D02*
X44802380Y-39002381D01*
X44707142Y-39050000D01*
X44659523Y-39097619D01*
X44611904Y-39192857D01*
X44564285Y-39383333D01*
X44564285Y-39621429D01*
X44611904Y-39811905D01*
X44659523Y-39907143D01*
X44707142Y-39954762D01*
X44802380Y-40002381D01*
X44897619Y-40002381D01*
X44992857Y-39954762D01*
X45040476Y-39907143D01*
X45088095Y-39811905D01*
X45135714Y-39621429D01*
X45135714Y-39383333D01*
X45088095Y-39192857D01*
X45040476Y-39097619D01*
X44992857Y-39050000D01*
X44897619Y-39002381D01*
X52916666Y-38202381D02*
X53250000Y-37726190D01*
X53488095Y-38202381D02*
X53488095Y-37202381D01*
X53107142Y-37202381D01*
X53011904Y-37250000D01*
X52964285Y-37297619D01*
X52916666Y-37392857D01*
X52916666Y-37535714D01*
X52964285Y-37630952D01*
X53011904Y-37678571D01*
X53107142Y-37726190D01*
X53488095Y-37726190D01*
X51964285Y-38202381D02*
X52535714Y-38202381D01*
X52250000Y-38202381D02*
X52250000Y-37202381D01*
X52345238Y-37345238D01*
X52440476Y-37440476D01*
X52535714Y-37488095D01*
X59402381Y-39983334D02*
X58926190Y-39650000D01*
X59402381Y-39411905D02*
X58402381Y-39411905D01*
X58402381Y-39792858D01*
X58450000Y-39888096D01*
X58497619Y-39935715D01*
X58592857Y-39983334D01*
X58735714Y-39983334D01*
X58830952Y-39935715D01*
X58878571Y-39888096D01*
X58926190Y-39792858D01*
X58926190Y-39411905D01*
X58497619Y-40364286D02*
X58450000Y-40411905D01*
X58402381Y-40507143D01*
X58402381Y-40745239D01*
X58450000Y-40840477D01*
X58497619Y-40888096D01*
X58592857Y-40935715D01*
X58688095Y-40935715D01*
X58830952Y-40888096D01*
X59402381Y-40316667D01*
X59402381Y-40935715D01*
X77202381Y-40383334D02*
X76726190Y-40050000D01*
X77202381Y-39811905D02*
X76202381Y-39811905D01*
X76202381Y-40192858D01*
X76250000Y-40288096D01*
X76297619Y-40335715D01*
X76392857Y-40383334D01*
X76535714Y-40383334D01*
X76630952Y-40335715D01*
X76678571Y-40288096D01*
X76726190Y-40192858D01*
X76726190Y-39811905D01*
X76202381Y-40716667D02*
X76202381Y-41335715D01*
X76583333Y-41002381D01*
X76583333Y-41145239D01*
X76630952Y-41240477D01*
X76678571Y-41288096D01*
X76773810Y-41335715D01*
X77011905Y-41335715D01*
X77107143Y-41288096D01*
X77154762Y-41240477D01*
X77202381Y-41145239D01*
X77202381Y-40859524D01*
X77154762Y-40764286D01*
X77107143Y-40716667D01*
X81016666Y-38302381D02*
X81350000Y-37826190D01*
X81588095Y-38302381D02*
X81588095Y-37302381D01*
X81207142Y-37302381D01*
X81111904Y-37350000D01*
X81064285Y-37397619D01*
X81016666Y-37492857D01*
X81016666Y-37635714D01*
X81064285Y-37730952D01*
X81111904Y-37778571D01*
X81207142Y-37826190D01*
X81588095Y-37826190D01*
X80159523Y-37635714D02*
X80159523Y-38302381D01*
X80397619Y-37254762D02*
X80635714Y-37969048D01*
X80016666Y-37969048D01*
X81016666Y-43302381D02*
X81350000Y-42826190D01*
X81588095Y-43302381D02*
X81588095Y-42302381D01*
X81207142Y-42302381D01*
X81111904Y-42350000D01*
X81064285Y-42397619D01*
X81016666Y-42492857D01*
X81016666Y-42635714D01*
X81064285Y-42730952D01*
X81111904Y-42778571D01*
X81207142Y-42826190D01*
X81588095Y-42826190D01*
X80111904Y-42302381D02*
X80588095Y-42302381D01*
X80635714Y-42778571D01*
X80588095Y-42730952D01*
X80492857Y-42683333D01*
X80254761Y-42683333D01*
X80159523Y-42730952D01*
X80111904Y-42778571D01*
X80064285Y-42873810D01*
X80064285Y-43111905D01*
X80111904Y-43207143D01*
X80159523Y-43254762D01*
X80254761Y-43302381D01*
X80492857Y-43302381D01*
X80588095Y-43254762D01*
X80635714Y-43207143D01*
X83554762Y-48959524D02*
X83602381Y-49102381D01*
X83602381Y-49340477D01*
X83554762Y-49435715D01*
X83507143Y-49483334D01*
X83411905Y-49530953D01*
X83316667Y-49530953D01*
X83221429Y-49483334D01*
X83173810Y-49435715D01*
X83126190Y-49340477D01*
X83078571Y-49150000D01*
X83030952Y-49054762D01*
X82983333Y-49007143D01*
X82888095Y-48959524D01*
X82792857Y-48959524D01*
X82697619Y-49007143D01*
X82650000Y-49054762D01*
X82602381Y-49150000D01*
X82602381Y-49388096D01*
X82650000Y-49530953D01*
X83507143Y-50530953D02*
X83554762Y-50483334D01*
X83602381Y-50340477D01*
X83602381Y-50245239D01*
X83554762Y-50102381D01*
X83459524Y-50007143D01*
X83364286Y-49959524D01*
X83173810Y-49911905D01*
X83030952Y-49911905D01*
X82840476Y-49959524D01*
X82745238Y-50007143D01*
X82650000Y-50102381D01*
X82602381Y-50245239D01*
X82602381Y-50340477D01*
X82650000Y-50483334D01*
X82697619Y-50530953D01*
X83602381Y-51435715D02*
X83602381Y-50959524D01*
X82602381Y-50959524D01*
X78354762Y-43235714D02*
X78402381Y-43378571D01*
X78402381Y-43616667D01*
X78354762Y-43711905D01*
X78307143Y-43759524D01*
X78211905Y-43807143D01*
X78116667Y-43807143D01*
X78021429Y-43759524D01*
X77973810Y-43711905D01*
X77926190Y-43616667D01*
X77878571Y-43426190D01*
X77830952Y-43330952D01*
X77783333Y-43283333D01*
X77688095Y-43235714D01*
X77592857Y-43235714D01*
X77497619Y-43283333D01*
X77450000Y-43330952D01*
X77402381Y-43426190D01*
X77402381Y-43664286D01*
X77450000Y-43807143D01*
X78402381Y-44235714D02*
X77402381Y-44235714D01*
X77402381Y-44473809D01*
X77450000Y-44616667D01*
X77545238Y-44711905D01*
X77640476Y-44759524D01*
X77830952Y-44807143D01*
X77973810Y-44807143D01*
X78164286Y-44759524D01*
X78259524Y-44711905D01*
X78354762Y-44616667D01*
X78402381Y-44473809D01*
X78402381Y-44235714D01*
X78116667Y-45188095D02*
X78116667Y-45664286D01*
X78402381Y-45092857D02*
X77402381Y-45426190D01*
X78402381Y-45759524D01*
X53150000Y-43488096D02*
X53102381Y-43392858D01*
X53102381Y-43250001D01*
X53150000Y-43107143D01*
X53245238Y-43011905D01*
X53340476Y-42964286D01*
X53530952Y-42916667D01*
X53673810Y-42916667D01*
X53864286Y-42964286D01*
X53959524Y-43011905D01*
X54054762Y-43107143D01*
X54102381Y-43250001D01*
X54102381Y-43345239D01*
X54054762Y-43488096D01*
X54007143Y-43535715D01*
X53673810Y-43535715D01*
X53673810Y-43345239D01*
X54102381Y-43964286D02*
X53102381Y-43964286D01*
X54102381Y-44535715D01*
X53102381Y-44535715D01*
X54102381Y-45011905D02*
X53102381Y-45011905D01*
X53102381Y-45250000D01*
X53150000Y-45392858D01*
X53245238Y-45488096D01*
X53340476Y-45535715D01*
X53530952Y-45583334D01*
X53673810Y-45583334D01*
X53864286Y-45535715D01*
X53959524Y-45488096D01*
X54054762Y-45392858D01*
X54102381Y-45250000D01*
X54102381Y-45011905D01*
X48421429Y-41550000D02*
X48421429Y-42311905D01*
X48802381Y-41930953D02*
X48040476Y-41930953D01*
X47802381Y-42692857D02*
X47802381Y-43311905D01*
X48183333Y-42978571D01*
X48183333Y-43121429D01*
X48230952Y-43216667D01*
X48278571Y-43264286D01*
X48373810Y-43311905D01*
X48611905Y-43311905D01*
X48707143Y-43264286D01*
X48754762Y-43216667D01*
X48802381Y-43121429D01*
X48802381Y-42835714D01*
X48754762Y-42740476D01*
X48707143Y-42692857D01*
X48707143Y-43740476D02*
X48754762Y-43788095D01*
X48802381Y-43740476D01*
X48754762Y-43692857D01*
X48707143Y-43740476D01*
X48802381Y-43740476D01*
X47802381Y-44121428D02*
X47802381Y-44740476D01*
X48183333Y-44407142D01*
X48183333Y-44550000D01*
X48230952Y-44645238D01*
X48278571Y-44692857D01*
X48373810Y-44740476D01*
X48611905Y-44740476D01*
X48707143Y-44692857D01*
X48754762Y-44645238D01*
X48802381Y-44550000D01*
X48802381Y-44264285D01*
X48754762Y-44169047D01*
X48707143Y-44121428D01*
X47802381Y-45026190D02*
X48802381Y-45359523D01*
X47802381Y-45692857D01*
X38250000Y-37416667D02*
X38202381Y-37321429D01*
X38202381Y-37178572D01*
X38250000Y-37035714D01*
X38345238Y-36940476D01*
X38440476Y-36892857D01*
X38630952Y-36845238D01*
X38773810Y-36845238D01*
X38964286Y-36892857D01*
X39059524Y-36940476D01*
X39154762Y-37035714D01*
X39202381Y-37178572D01*
X39202381Y-37273810D01*
X39154762Y-37416667D01*
X39107143Y-37464286D01*
X38773810Y-37464286D01*
X38773810Y-37273810D01*
X39202381Y-37892857D02*
X38202381Y-37892857D01*
X39202381Y-38464286D01*
X38202381Y-38464286D01*
X39202381Y-38940476D02*
X38202381Y-38940476D01*
X38202381Y-39178571D01*
X38250000Y-39321429D01*
X38345238Y-39416667D01*
X38440476Y-39464286D01*
X38630952Y-39511905D01*
X38773810Y-39511905D01*
X38964286Y-39464286D01*
X39059524Y-39416667D01*
X39154762Y-39321429D01*
X39202381Y-39178571D01*
X39202381Y-38940476D01*
X39202381Y-39940476D02*
X38202381Y-39940476D01*
X38202381Y-40321429D01*
X38250000Y-40416667D01*
X38297619Y-40464286D01*
X38392857Y-40511905D01*
X38535714Y-40511905D01*
X38630952Y-40464286D01*
X38678571Y-40416667D01*
X38726190Y-40321429D01*
X38726190Y-39940476D01*
X38202381Y-40845238D02*
X39202381Y-41083333D01*
X38488095Y-41273810D01*
X39202381Y-41464286D01*
X38202381Y-41702381D01*
X39202381Y-42654762D02*
X38726190Y-42321428D01*
X39202381Y-42083333D02*
X38202381Y-42083333D01*
X38202381Y-42464286D01*
X38250000Y-42559524D01*
X38297619Y-42607143D01*
X38392857Y-42654762D01*
X38535714Y-42654762D01*
X38630952Y-42607143D01*
X38678571Y-42559524D01*
X38726190Y-42464286D01*
X38726190Y-42083333D01*
X33521429Y-40064286D02*
X33521429Y-40826191D01*
X33902381Y-40445239D02*
X33140476Y-40445239D01*
X32902381Y-41778572D02*
X32902381Y-41302381D01*
X33378571Y-41254762D01*
X33330952Y-41302381D01*
X33283333Y-41397619D01*
X33283333Y-41635715D01*
X33330952Y-41730953D01*
X33378571Y-41778572D01*
X33473810Y-41826191D01*
X33711905Y-41826191D01*
X33807143Y-41778572D01*
X33854762Y-41730953D01*
X33902381Y-41635715D01*
X33902381Y-41397619D01*
X33854762Y-41302381D01*
X33807143Y-41254762D01*
X32902381Y-42111905D02*
X33902381Y-42445238D01*
X32902381Y-42778572D01*
X56383333Y-52578571D02*
X56240476Y-52626190D01*
X56192857Y-52673810D01*
X56145238Y-52769048D01*
X56145238Y-52911905D01*
X56192857Y-53007143D01*
X56240476Y-53054762D01*
X56335714Y-53102381D01*
X56716667Y-53102381D01*
X56716667Y-52102381D01*
X56383333Y-52102381D01*
X56288095Y-52150000D01*
X56240476Y-52197619D01*
X56192857Y-52292857D01*
X56192857Y-52388095D01*
X56240476Y-52483333D01*
X56288095Y-52530952D01*
X56383333Y-52578571D01*
X56716667Y-52578571D01*
X55526191Y-52102381D02*
X55335714Y-52102381D01*
X55240476Y-52150000D01*
X55145238Y-52245238D01*
X55097619Y-52435714D01*
X55097619Y-52769048D01*
X55145238Y-52959524D01*
X55240476Y-53054762D01*
X55335714Y-53102381D01*
X55526191Y-53102381D01*
X55621429Y-53054762D01*
X55716667Y-52959524D01*
X55764286Y-52769048D01*
X55764286Y-52435714D01*
X55716667Y-52245238D01*
X55621429Y-52150000D01*
X55526191Y-52102381D01*
X54478572Y-52102381D02*
X54288095Y-52102381D01*
X54192857Y-52150000D01*
X54097619Y-52245238D01*
X54050000Y-52435714D01*
X54050000Y-52769048D01*
X54097619Y-52959524D01*
X54192857Y-53054762D01*
X54288095Y-53102381D01*
X54478572Y-53102381D01*
X54573810Y-53054762D01*
X54669048Y-52959524D01*
X54716667Y-52769048D01*
X54716667Y-52435714D01*
X54669048Y-52245238D01*
X54573810Y-52150000D01*
X54478572Y-52102381D01*
X53764286Y-52102381D02*
X53192857Y-52102381D01*
X53478572Y-53102381D02*
X53478572Y-52102381D01*
X52669048Y-52102381D02*
X52573809Y-52102381D01*
X52478571Y-52150000D01*
X52430952Y-52197619D01*
X52383333Y-52292857D01*
X52335714Y-52483333D01*
X52335714Y-52721429D01*
X52383333Y-52911905D01*
X52430952Y-53007143D01*
X52478571Y-53054762D01*
X52573809Y-53102381D01*
X52669048Y-53102381D01*
X52764286Y-53054762D01*
X52811905Y-53007143D01*
X52859524Y-52911905D01*
X52907143Y-52721429D01*
X52907143Y-52483333D01*
X52859524Y-52292857D01*
X52811905Y-52197619D01*
X52764286Y-52150000D01*
X52669048Y-52102381D01*
X56692857Y-50502381D02*
X56692857Y-49502381D01*
X56121428Y-50502381D01*
X56121428Y-49502381D01*
X55073809Y-50502381D02*
X55407143Y-50026190D01*
X55645238Y-50502381D02*
X55645238Y-49502381D01*
X55264285Y-49502381D01*
X55169047Y-49550000D01*
X55121428Y-49597619D01*
X55073809Y-49692857D01*
X55073809Y-49835714D01*
X55121428Y-49930952D01*
X55169047Y-49978571D01*
X55264285Y-50026190D01*
X55645238Y-50026190D01*
X54692857Y-50454762D02*
X54550000Y-50502381D01*
X54311904Y-50502381D01*
X54216666Y-50454762D01*
X54169047Y-50407143D01*
X54121428Y-50311905D01*
X54121428Y-50216667D01*
X54169047Y-50121429D01*
X54216666Y-50073810D01*
X54311904Y-50026190D01*
X54502381Y-49978571D01*
X54597619Y-49930952D01*
X54645238Y-49883333D01*
X54692857Y-49788095D01*
X54692857Y-49692857D01*
X54645238Y-49597619D01*
X54597619Y-49550000D01*
X54502381Y-49502381D01*
X54264285Y-49502381D01*
X54121428Y-49550000D01*
X53835714Y-49502381D02*
X53264285Y-49502381D01*
X53550000Y-50502381D02*
X53550000Y-49502381D01*
X37207143Y-50583334D02*
X37254762Y-50535715D01*
X37302381Y-50392858D01*
X37302381Y-50297620D01*
X37254762Y-50154762D01*
X37159524Y-50059524D01*
X37064286Y-50011905D01*
X36873810Y-49964286D01*
X36730952Y-49964286D01*
X36540476Y-50011905D01*
X36445238Y-50059524D01*
X36350000Y-50154762D01*
X36302381Y-50297620D01*
X36302381Y-50392858D01*
X36350000Y-50535715D01*
X36397619Y-50583334D01*
X37302381Y-51059524D02*
X37302381Y-51250000D01*
X37254762Y-51345239D01*
X37207143Y-51392858D01*
X37064286Y-51488096D01*
X36873810Y-51535715D01*
X36492857Y-51535715D01*
X36397619Y-51488096D01*
X36350000Y-51440477D01*
X36302381Y-51345239D01*
X36302381Y-51154762D01*
X36350000Y-51059524D01*
X36397619Y-51011905D01*
X36492857Y-50964286D01*
X36730952Y-50964286D01*
X36826190Y-51011905D01*
X36873810Y-51059524D01*
X36921429Y-51154762D01*
X36921429Y-51345239D01*
X36873810Y-51440477D01*
X36826190Y-51488096D01*
X36730952Y-51535715D01*
X46807143Y-50107143D02*
X46854762Y-50059524D01*
X46902381Y-49916667D01*
X46902381Y-49821429D01*
X46854762Y-49678571D01*
X46759524Y-49583333D01*
X46664286Y-49535714D01*
X46473810Y-49488095D01*
X46330952Y-49488095D01*
X46140476Y-49535714D01*
X46045238Y-49583333D01*
X45950000Y-49678571D01*
X45902381Y-49821429D01*
X45902381Y-49916667D01*
X45950000Y-50059524D01*
X45997619Y-50107143D01*
X46902381Y-51059524D02*
X46902381Y-50488095D01*
X46902381Y-50773809D02*
X45902381Y-50773809D01*
X46045238Y-50678571D01*
X46140476Y-50583333D01*
X46188095Y-50488095D01*
X45902381Y-51678571D02*
X45902381Y-51773810D01*
X45950000Y-51869048D01*
X45997619Y-51916667D01*
X46092857Y-51964286D01*
X46283333Y-52011905D01*
X46521429Y-52011905D01*
X46711905Y-51964286D01*
X46807143Y-51916667D01*
X46854762Y-51869048D01*
X46902381Y-51773810D01*
X46902381Y-51678571D01*
X46854762Y-51583333D01*
X46807143Y-51535714D01*
X46711905Y-51488095D01*
X46521429Y-51440476D01*
X46283333Y-51440476D01*
X46092857Y-51488095D01*
X45997619Y-51535714D01*
X45950000Y-51583333D01*
X45902381Y-51678571D01*
X43211905Y-47502381D02*
X43211905Y-48311905D01*
X43164286Y-48407143D01*
X43116667Y-48454762D01*
X43021429Y-48502381D01*
X42830952Y-48502381D01*
X42735714Y-48454762D01*
X42688095Y-48407143D01*
X42640476Y-48311905D01*
X42640476Y-47502381D01*
X42211905Y-47597619D02*
X42164286Y-47550000D01*
X42069048Y-47502381D01*
X41830952Y-47502381D01*
X41735714Y-47550000D01*
X41688095Y-47597619D01*
X41640476Y-47692857D01*
X41640476Y-47788095D01*
X41688095Y-47930952D01*
X42259524Y-48502381D01*
X41640476Y-48502381D01*
X75007143Y-42983334D02*
X75054762Y-42935715D01*
X75102381Y-42792858D01*
X75102381Y-42697620D01*
X75054762Y-42554762D01*
X74959524Y-42459524D01*
X74864286Y-42411905D01*
X74673810Y-42364286D01*
X74530952Y-42364286D01*
X74340476Y-42411905D01*
X74245238Y-42459524D01*
X74150000Y-42554762D01*
X74102381Y-42697620D01*
X74102381Y-42792858D01*
X74150000Y-42935715D01*
X74197619Y-42983334D01*
X74530952Y-43554762D02*
X74483333Y-43459524D01*
X74435714Y-43411905D01*
X74340476Y-43364286D01*
X74292857Y-43364286D01*
X74197619Y-43411905D01*
X74150000Y-43459524D01*
X74102381Y-43554762D01*
X74102381Y-43745239D01*
X74150000Y-43840477D01*
X74197619Y-43888096D01*
X74292857Y-43935715D01*
X74340476Y-43935715D01*
X74435714Y-43888096D01*
X74483333Y-43840477D01*
X74530952Y-43745239D01*
X74530952Y-43554762D01*
X74578571Y-43459524D01*
X74626190Y-43411905D01*
X74721429Y-43364286D01*
X74911905Y-43364286D01*
X75007143Y-43411905D01*
X75054762Y-43459524D01*
X75102381Y-43554762D01*
X75102381Y-43745239D01*
X75054762Y-43840477D01*
X75007143Y-43888096D01*
X74911905Y-43935715D01*
X74721429Y-43935715D01*
X74626190Y-43888096D01*
X74578571Y-43840477D01*
X74530952Y-43745239D01*
X65207143Y-38207143D02*
X65254762Y-38159524D01*
X65302381Y-38016667D01*
X65302381Y-37921429D01*
X65254762Y-37778571D01*
X65159524Y-37683333D01*
X65064286Y-37635714D01*
X64873810Y-37588095D01*
X64730952Y-37588095D01*
X64540476Y-37635714D01*
X64445238Y-37683333D01*
X64350000Y-37778571D01*
X64302381Y-37921429D01*
X64302381Y-38016667D01*
X64350000Y-38159524D01*
X64397619Y-38207143D01*
X65302381Y-39159524D02*
X65302381Y-38588095D01*
X65302381Y-38873809D02*
X64302381Y-38873809D01*
X64445238Y-38778571D01*
X64540476Y-38683333D01*
X64588095Y-38588095D01*
X64397619Y-39540476D02*
X64350000Y-39588095D01*
X64302381Y-39683333D01*
X64302381Y-39921429D01*
X64350000Y-40016667D01*
X64397619Y-40064286D01*
X64492857Y-40111905D01*
X64588095Y-40111905D01*
X64730952Y-40064286D01*
X65302381Y-39492857D01*
X65302381Y-40111905D01*
X74792857Y-46807143D02*
X74840476Y-46854762D01*
X74983333Y-46902381D01*
X75078571Y-46902381D01*
X75221429Y-46854762D01*
X75316667Y-46759524D01*
X75364286Y-46664286D01*
X75411905Y-46473810D01*
X75411905Y-46330952D01*
X75364286Y-46140476D01*
X75316667Y-46045238D01*
X75221429Y-45950000D01*
X75078571Y-45902381D01*
X74983333Y-45902381D01*
X74840476Y-45950000D01*
X74792857Y-45997619D01*
X73840476Y-46902381D02*
X74411905Y-46902381D01*
X74126191Y-46902381D02*
X74126191Y-45902381D01*
X74221429Y-46045238D01*
X74316667Y-46140476D01*
X74411905Y-46188095D01*
X73507143Y-45902381D02*
X72888095Y-45902381D01*
X73221429Y-46283333D01*
X73078571Y-46283333D01*
X72983333Y-46330952D01*
X72935714Y-46378571D01*
X72888095Y-46473810D01*
X72888095Y-46711905D01*
X72935714Y-46807143D01*
X72983333Y-46854762D01*
X73078571Y-46902381D01*
X73364286Y-46902381D01*
X73459524Y-46854762D01*
X73507143Y-46807143D01*
X74669047Y-52454762D02*
X74526190Y-52502381D01*
X74288094Y-52502381D01*
X74192856Y-52454762D01*
X74145237Y-52407143D01*
X74097618Y-52311905D01*
X74097618Y-52216667D01*
X74145237Y-52121429D01*
X74192856Y-52073810D01*
X74288094Y-52026190D01*
X74478571Y-51978571D01*
X74573809Y-51930952D01*
X74621428Y-51883333D01*
X74669047Y-51788095D01*
X74669047Y-51692857D01*
X74621428Y-51597619D01*
X74573809Y-51550000D01*
X74478571Y-51502381D01*
X74240475Y-51502381D01*
X74097618Y-51550000D01*
X73764285Y-51502381D02*
X73526190Y-52502381D01*
X73335713Y-51788095D01*
X73145237Y-52502381D01*
X72907142Y-51502381D01*
X72526190Y-52502381D02*
X72526190Y-51502381D01*
X72288095Y-51502381D01*
X72145237Y-51550000D01*
X72049999Y-51645238D01*
X72002380Y-51740476D01*
X71954761Y-51930952D01*
X71954761Y-52073810D01*
X72002380Y-52264286D01*
X72049999Y-52359524D01*
X72145237Y-52454762D01*
X72288095Y-52502381D01*
X72526190Y-52502381D01*
X71526190Y-52502381D02*
X71526190Y-51502381D01*
X70859524Y-51502381D02*
X70669047Y-51502381D01*
X70573809Y-51550000D01*
X70478571Y-51645238D01*
X70430952Y-51835714D01*
X70430952Y-52169048D01*
X70478571Y-52359524D01*
X70573809Y-52454762D01*
X70669047Y-52502381D01*
X70859524Y-52502381D01*
X70954762Y-52454762D01*
X71050000Y-52359524D01*
X71097619Y-52169048D01*
X71097619Y-51835714D01*
X71050000Y-51645238D01*
X70954762Y-51550000D01*
X70859524Y-51502381D01*
X79711905Y-52454762D02*
X79569048Y-52502381D01*
X79330952Y-52502381D01*
X79235714Y-52454762D01*
X79188095Y-52407143D01*
X79140476Y-52311905D01*
X79140476Y-52216667D01*
X79188095Y-52121429D01*
X79235714Y-52073810D01*
X79330952Y-52026190D01*
X79521429Y-51978571D01*
X79616667Y-51930952D01*
X79664286Y-51883333D01*
X79711905Y-51788095D01*
X79711905Y-51692857D01*
X79664286Y-51597619D01*
X79616667Y-51550000D01*
X79521429Y-51502381D01*
X79283333Y-51502381D01*
X79140476Y-51550000D01*
X78807143Y-51502381D02*
X78569048Y-52502381D01*
X78378571Y-51788095D01*
X78188095Y-52502381D01*
X77950000Y-51502381D01*
X76997619Y-52407143D02*
X77045238Y-52454762D01*
X77188095Y-52502381D01*
X77283333Y-52502381D01*
X77426191Y-52454762D01*
X77521429Y-52359524D01*
X77569048Y-52264286D01*
X77616667Y-52073810D01*
X77616667Y-51930952D01*
X77569048Y-51740476D01*
X77521429Y-51645238D01*
X77426191Y-51550000D01*
X77283333Y-51502381D01*
X77188095Y-51502381D01*
X77045238Y-51550000D01*
X76997619Y-51597619D01*
X76092857Y-52502381D02*
X76569048Y-52502381D01*
X76569048Y-51502381D01*
X75759524Y-52502381D02*
X75759524Y-51502381D01*
X75188095Y-52502381D02*
X75616667Y-51930952D01*
X75188095Y-51502381D02*
X75759524Y-52073810D01*
X37102381Y-46816667D02*
X37816667Y-46816667D01*
X37959524Y-46769047D01*
X38054762Y-46673809D01*
X38102381Y-46530952D01*
X38102381Y-46435714D01*
X38102381Y-47292857D02*
X37102381Y-47292857D01*
X37102381Y-47673810D01*
X37150000Y-47769048D01*
X37197619Y-47816667D01*
X37292857Y-47864286D01*
X37435714Y-47864286D01*
X37530952Y-47816667D01*
X37578571Y-47769048D01*
X37626190Y-47673810D01*
X37626190Y-47292857D01*
X38102381Y-48816667D02*
X38102381Y-48245238D01*
X38102381Y-48530952D02*
X37102381Y-48530952D01*
X37245238Y-48435714D01*
X37340476Y-48340476D01*
X37388095Y-48245238D01*
X67483333Y-53602381D02*
X67483333Y-54316667D01*
X67530953Y-54459524D01*
X67626191Y-54554762D01*
X67769048Y-54602381D01*
X67864286Y-54602381D01*
X67007143Y-54602381D02*
X67007143Y-53602381D01*
X66626190Y-53602381D01*
X66530952Y-53650000D01*
X66483333Y-53697619D01*
X66435714Y-53792857D01*
X66435714Y-53935714D01*
X66483333Y-54030952D01*
X66530952Y-54078571D01*
X66626190Y-54126190D01*
X67007143Y-54126190D01*
X66054762Y-53697619D02*
X66007143Y-53650000D01*
X65911905Y-53602381D01*
X65673809Y-53602381D01*
X65578571Y-53650000D01*
X65530952Y-53697619D01*
X65483333Y-53792857D01*
X65483333Y-53888095D01*
X65530952Y-54030952D01*
X66102381Y-54602381D01*
X65483333Y-54602381D01*
X69311905Y-40202381D02*
X69311905Y-41011905D01*
X69264286Y-41107143D01*
X69216667Y-41154762D01*
X69121429Y-41202381D01*
X68930952Y-41202381D01*
X68835714Y-41154762D01*
X68788095Y-41107143D01*
X68740476Y-41011905D01*
X68740476Y-40202381D01*
X67740476Y-41202381D02*
X68311905Y-41202381D01*
X68026191Y-41202381D02*
X68026191Y-40202381D01*
X68121429Y-40345238D01*
X68216667Y-40440476D01*
X68311905Y-40488095D01*
X63292857Y-54602381D02*
X63626191Y-54126190D01*
X63864286Y-54602381D02*
X63864286Y-53602381D01*
X63483333Y-53602381D01*
X63388095Y-53650000D01*
X63340476Y-53697619D01*
X63292857Y-53792857D01*
X63292857Y-53935714D01*
X63340476Y-54030952D01*
X63388095Y-54078571D01*
X63483333Y-54126190D01*
X63864286Y-54126190D01*
X62340476Y-54602381D02*
X62911905Y-54602381D01*
X62626191Y-54602381D02*
X62626191Y-53602381D01*
X62721429Y-53745238D01*
X62816667Y-53840476D01*
X62911905Y-53888095D01*
X61959524Y-53697619D02*
X61911905Y-53650000D01*
X61816667Y-53602381D01*
X61578571Y-53602381D01*
X61483333Y-53650000D01*
X61435714Y-53697619D01*
X61388095Y-53792857D01*
X61388095Y-53888095D01*
X61435714Y-54030952D01*
X62007143Y-54602381D01*
X61388095Y-54602381D01*
M02*
