G04 #@! TF.FileFunction,Copper,L1,Top,Signal*
%FSLAX46Y46*%
G04 Gerber Fmt 4.6, Leading zero omitted, Abs format (unit mm)*
G04 Created by KiCad (PCBNEW (2016-02-08 BZR 6543, Git 5349eb4)-product) date Sun Feb 21 23:51:38 2016*
%MOMM*%
G01*
G04 APERTURE LIST*
%ADD10C,0.100000*%
%ADD11R,2.000000X1.000000*%
%ADD12R,8.000000X15.000000*%
%ADD13C,0.600000*%
%ADD14C,0.800000*%
%ADD15C,0.400000*%
%ADD16C,0.200000*%
%ADD17C,0.300000*%
G04 APERTURE END LIST*
D10*
D11*
X70250000Y-35350000D03*
X70250000Y-33750000D03*
X70250000Y-32150000D03*
X65250000Y-35350000D03*
X65250000Y-33750000D03*
X65250000Y-32150000D03*
X49250000Y-35350000D03*
X49250000Y-33750000D03*
X49250000Y-32150000D03*
X44250000Y-35350000D03*
X44250000Y-33750000D03*
X44250000Y-32150000D03*
X59750000Y-35350000D03*
X59750000Y-33750000D03*
X59750000Y-32150000D03*
X54750000Y-35350000D03*
X54750000Y-33750000D03*
X54750000Y-32150000D03*
X80750000Y-35350000D03*
X80750000Y-33750000D03*
X80750000Y-32150000D03*
X75750000Y-35350000D03*
X75750000Y-33750000D03*
X75750000Y-32150000D03*
X91250000Y-35350000D03*
X91250000Y-33750000D03*
X91250000Y-32150000D03*
X86250000Y-35350000D03*
X86250000Y-33750000D03*
X86250000Y-32150000D03*
D12*
X36250000Y-45250000D03*
X46750000Y-45250000D03*
X57250000Y-45250000D03*
X67750000Y-45250000D03*
X78250000Y-45250000D03*
X88750000Y-45250000D03*
D11*
X38750000Y-35350000D03*
X38750000Y-33750000D03*
X38750000Y-32150000D03*
X33750000Y-35350000D03*
X33750000Y-33750000D03*
X33750000Y-32150000D03*
D13*
X84750000Y-35350000D03*
X77650000Y-35350000D03*
X67150000Y-35350000D03*
X56650000Y-35350000D03*
X46150000Y-35350000D03*
X35650000Y-35350000D03*
X83750000Y-38150000D03*
X42650000Y-33750000D03*
X84650000Y-33750000D03*
X79050000Y-33750000D03*
X58050000Y-33750000D03*
X37050000Y-33750000D03*
X47550000Y-33750000D03*
X68550000Y-33750000D03*
X89550000Y-33750000D03*
X74050000Y-33750000D03*
X63650000Y-33750000D03*
X53050000Y-33750000D03*
X73050000Y-40650000D03*
X61950000Y-38150000D03*
X53550000Y-36750000D03*
X62450000Y-41850000D03*
X73350000Y-46550000D03*
X35650000Y-36450000D03*
X31250000Y-31250000D03*
X31250000Y-53750000D03*
X93750000Y-31250000D03*
X76450000Y-53350000D03*
X72150000Y-53350000D03*
X93750000Y-53750000D03*
X62550000Y-50750000D03*
X41550000Y-47650000D03*
X87950000Y-36950000D03*
X64050000Y-36750000D03*
X43050000Y-36750000D03*
X74550000Y-36750000D03*
X85050000Y-36800000D03*
X51950000Y-41850000D03*
X51950000Y-50150000D03*
X92950000Y-33050000D03*
X51050000Y-33750000D03*
X40550000Y-33750000D03*
X61550000Y-33750000D03*
X82550000Y-33750000D03*
X72050000Y-33750000D03*
X88050000Y-35750000D03*
X88850000Y-36950000D03*
X88850000Y-35750000D03*
X73250000Y-38650000D03*
X40950000Y-39450000D03*
X51450000Y-39450000D03*
X61950000Y-39450000D03*
X72450000Y-39650000D03*
X82950000Y-39050000D03*
X83850000Y-40050000D03*
D14*
X84750000Y-35350000D02*
X86250000Y-35350000D01*
X77650000Y-35350000D02*
X75750000Y-35350000D01*
X67150000Y-35350000D02*
X65250000Y-35350000D01*
X56650000Y-35350000D02*
X54750000Y-35350000D01*
X44250000Y-35350000D02*
X46150000Y-35350000D01*
X35650000Y-35350000D02*
X33750000Y-35350000D01*
D15*
X83750000Y-36350000D02*
X84750000Y-35350000D01*
X83750000Y-38150000D02*
X83750000Y-36350000D01*
D16*
X73350000Y-52750000D02*
X73350000Y-46550000D01*
X31250000Y-31250000D02*
X31750000Y-30750000D01*
X62450000Y-53350000D02*
X62050000Y-53750000D01*
X62050000Y-53750000D02*
X31250000Y-53750000D01*
X31250000Y-31250000D02*
X31250000Y-53750000D01*
X93250000Y-30750000D02*
X93750000Y-31250000D01*
X31750000Y-30750000D02*
X93250000Y-30750000D01*
X76450000Y-53350000D02*
X76850000Y-53750000D01*
X72150000Y-53350000D02*
X76450000Y-53350000D01*
X76850000Y-53750000D02*
X93750000Y-53750000D01*
X72150000Y-53350000D02*
X62450000Y-53350000D01*
X62550000Y-53250000D02*
X62550000Y-50750000D01*
X62450000Y-53350000D02*
X62550000Y-53250000D01*
X51950000Y-50150000D02*
X51950000Y-41850000D01*
D14*
X92950000Y-33050000D02*
X92250000Y-33750000D01*
X91250000Y-33750000D02*
X92250000Y-33750000D01*
X51050000Y-33750000D02*
X49350000Y-33750000D01*
X38750000Y-33750000D02*
X40550000Y-33750000D01*
X61550000Y-33750000D02*
X59650000Y-33750000D01*
X80750000Y-33750000D02*
X82550000Y-33750000D01*
X72050000Y-33750000D02*
X70250000Y-33750000D01*
D16*
X88050000Y-35750000D02*
X88050000Y-36150000D01*
X88050000Y-36150000D02*
X88850000Y-36950000D01*
X88050000Y-35750000D02*
X87650000Y-35350000D01*
X87650000Y-33050000D02*
X86750000Y-32150000D01*
X87650000Y-35350000D02*
X87650000Y-33050000D01*
X86250000Y-32150000D02*
X86750000Y-32150000D01*
X92450000Y-34550000D02*
X90050000Y-34550000D01*
X93656150Y-32604710D02*
X92401439Y-31349999D01*
X84850000Y-31349999D02*
X92401439Y-31349999D01*
X92450000Y-34550000D02*
X93656150Y-33343850D01*
X93656150Y-33343850D02*
X93656150Y-32604710D01*
X90050000Y-34550000D02*
X88850000Y-35750000D01*
X86250000Y-33750000D02*
X85650000Y-33750000D01*
X85650000Y-33750000D02*
X84850000Y-32950000D01*
X84850000Y-32950000D02*
X84850000Y-31349999D01*
X85750000Y-33750000D02*
X86250000Y-33750000D01*
X77050001Y-31349999D02*
X84850000Y-31349999D01*
X76250000Y-32150000D02*
X77050001Y-31349999D01*
X75750000Y-32150000D02*
X76250000Y-32150000D01*
X35850000Y-34550000D02*
X68250000Y-34550000D01*
X35050000Y-33750000D02*
X35850000Y-34550000D01*
X33750000Y-33750000D02*
X35050000Y-33750000D01*
X73250000Y-37050000D02*
X73250000Y-38650000D01*
X72450000Y-36250000D02*
X73250000Y-37050000D01*
X69150000Y-36250000D02*
X72450000Y-36250000D01*
X68850000Y-35950000D02*
X69150000Y-36250000D01*
X68850000Y-35150000D02*
X68850000Y-35950000D01*
X68250000Y-34550000D02*
X68850000Y-35150000D01*
X43750000Y-33750000D02*
X44250000Y-33750000D01*
X41349999Y-31349999D02*
X43750000Y-33750000D01*
X35050001Y-31349999D02*
X41349999Y-31349999D01*
X34250000Y-32150000D02*
X35050001Y-31349999D01*
X33750000Y-32150000D02*
X34250000Y-32150000D01*
X54250000Y-33750000D02*
X54750000Y-33750000D01*
X51849999Y-31349999D02*
X54250000Y-33750000D01*
X45550001Y-31349999D02*
X51849999Y-31349999D01*
X44750000Y-32150000D02*
X45550001Y-31349999D01*
X44250000Y-32150000D02*
X44750000Y-32150000D01*
X64750000Y-33750000D02*
X65250000Y-33750000D01*
X62349999Y-31349999D02*
X64750000Y-33750000D01*
X56050001Y-31349999D02*
X62349999Y-31349999D01*
X55250000Y-32150000D02*
X56050001Y-31349999D01*
X54750000Y-32150000D02*
X55250000Y-32150000D01*
X75250000Y-33750000D02*
X75750000Y-33750000D01*
X72849999Y-31349999D02*
X75250000Y-33750000D01*
X66550001Y-31349999D02*
X72849999Y-31349999D01*
X65750000Y-32150000D02*
X66550001Y-31349999D01*
X65250000Y-32150000D02*
X65750000Y-32150000D01*
X40950000Y-39450000D02*
X40150000Y-39450000D01*
X51450000Y-39450000D02*
X50650000Y-39450000D01*
X61950000Y-39450000D02*
X61150000Y-39450000D01*
X72450000Y-39650000D02*
X71450000Y-39650000D01*
X82950000Y-39050000D02*
X80150000Y-39050000D01*
D17*
X80150000Y-39050000D02*
X78250000Y-40950000D01*
X78250000Y-40950000D02*
X78250000Y-45250000D01*
D16*
X78250000Y-43350000D02*
X78250000Y-45250000D01*
X83850000Y-40050000D02*
X86150000Y-40050000D01*
X86150000Y-40050000D02*
X88750000Y-45250000D01*
G36*
X68642000Y-31844000D02*
X68794000Y-31996000D01*
X70096000Y-31996000D01*
X70096000Y-31976000D01*
X70404000Y-31976000D01*
X70404000Y-31996000D01*
X71706000Y-31996000D01*
X71858000Y-31844000D01*
X71858000Y-31750000D01*
X72684314Y-31750000D01*
X74444123Y-33509809D01*
X74444123Y-34250000D01*
X74467407Y-34367054D01*
X74522829Y-34450000D01*
X72050000Y-34450000D01*
X72317878Y-34396716D01*
X72544975Y-34244975D01*
X72696716Y-34017878D01*
X72750000Y-33750000D01*
X72696716Y-33482122D01*
X72544975Y-33255025D01*
X72317878Y-33103284D01*
X72050000Y-33050000D01*
X71709842Y-33050000D01*
X71765438Y-32994404D01*
X71858000Y-32770938D01*
X71858000Y-32456000D01*
X71706000Y-32304000D01*
X70404000Y-32304000D01*
X70404000Y-32324000D01*
X70096000Y-32324000D01*
X70096000Y-32304000D01*
X68794000Y-32304000D01*
X68642000Y-32456000D01*
X68642000Y-32770938D01*
X68734562Y-32994404D01*
X68905595Y-33165437D01*
X68956731Y-33186618D01*
X68944123Y-33250000D01*
X68944123Y-34250000D01*
X68967407Y-34367054D01*
X69022829Y-34450000D01*
X68715686Y-34450000D01*
X68532843Y-34267157D01*
X68403074Y-34180448D01*
X68250000Y-34150000D01*
X66555877Y-34150000D01*
X66555877Y-33250000D01*
X66532593Y-33132946D01*
X66466288Y-33033712D01*
X66367054Y-32967407D01*
X66279545Y-32950000D01*
X66367054Y-32932593D01*
X66466288Y-32866288D01*
X66532593Y-32767054D01*
X66555877Y-32650000D01*
X66555877Y-31909809D01*
X66715686Y-31750000D01*
X68642000Y-31750000D01*
X68642000Y-31844000D01*
X68642000Y-31844000D01*
G37*
X68642000Y-31844000D02*
X68794000Y-31996000D01*
X70096000Y-31996000D01*
X70096000Y-31976000D01*
X70404000Y-31976000D01*
X70404000Y-31996000D01*
X71706000Y-31996000D01*
X71858000Y-31844000D01*
X71858000Y-31750000D01*
X72684314Y-31750000D01*
X74444123Y-33509809D01*
X74444123Y-34250000D01*
X74467407Y-34367054D01*
X74522829Y-34450000D01*
X72050000Y-34450000D01*
X72317878Y-34396716D01*
X72544975Y-34244975D01*
X72696716Y-34017878D01*
X72750000Y-33750000D01*
X72696716Y-33482122D01*
X72544975Y-33255025D01*
X72317878Y-33103284D01*
X72050000Y-33050000D01*
X71709842Y-33050000D01*
X71765438Y-32994404D01*
X71858000Y-32770938D01*
X71858000Y-32456000D01*
X71706000Y-32304000D01*
X70404000Y-32304000D01*
X70404000Y-32324000D01*
X70096000Y-32324000D01*
X70096000Y-32304000D01*
X68794000Y-32304000D01*
X68642000Y-32456000D01*
X68642000Y-32770938D01*
X68734562Y-32994404D01*
X68905595Y-33165437D01*
X68956731Y-33186618D01*
X68944123Y-33250000D01*
X68944123Y-34250000D01*
X68967407Y-34367054D01*
X69022829Y-34450000D01*
X68715686Y-34450000D01*
X68532843Y-34267157D01*
X68403074Y-34180448D01*
X68250000Y-34150000D01*
X66555877Y-34150000D01*
X66555877Y-33250000D01*
X66532593Y-33132946D01*
X66466288Y-33033712D01*
X66367054Y-32967407D01*
X66279545Y-32950000D01*
X66367054Y-32932593D01*
X66466288Y-32866288D01*
X66532593Y-32767054D01*
X66555877Y-32650000D01*
X66555877Y-31909809D01*
X66715686Y-31750000D01*
X68642000Y-31750000D01*
X68642000Y-31844000D01*
G36*
X79142000Y-31844000D02*
X79294000Y-31996000D01*
X80596000Y-31996000D01*
X80596000Y-31976000D01*
X80904000Y-31976000D01*
X80904000Y-31996000D01*
X82206000Y-31996000D01*
X82358000Y-31844000D01*
X82358000Y-31750000D01*
X84450000Y-31750000D01*
X84450000Y-32950000D01*
X84480448Y-33103074D01*
X84567157Y-33232843D01*
X84944123Y-33609809D01*
X84944123Y-34250000D01*
X84967407Y-34367054D01*
X85022829Y-34450000D01*
X82550000Y-34450000D01*
X82817878Y-34396716D01*
X83044975Y-34244975D01*
X83196716Y-34017878D01*
X83250000Y-33750000D01*
X83196716Y-33482122D01*
X83044975Y-33255025D01*
X82817878Y-33103284D01*
X82550000Y-33050000D01*
X82209842Y-33050000D01*
X82265438Y-32994404D01*
X82358000Y-32770938D01*
X82358000Y-32456000D01*
X82206000Y-32304000D01*
X80904000Y-32304000D01*
X80904000Y-32324000D01*
X80596000Y-32324000D01*
X80596000Y-32304000D01*
X79294000Y-32304000D01*
X79142000Y-32456000D01*
X79142000Y-32770938D01*
X79234562Y-32994404D01*
X79405595Y-33165437D01*
X79456731Y-33186618D01*
X79444123Y-33250000D01*
X79444123Y-34250000D01*
X79467407Y-34367054D01*
X79522829Y-34450000D01*
X76977171Y-34450000D01*
X77032593Y-34367054D01*
X77055877Y-34250000D01*
X77055877Y-33250000D01*
X77032593Y-33132946D01*
X76966288Y-33033712D01*
X76867054Y-32967407D01*
X76779545Y-32950000D01*
X76867054Y-32932593D01*
X76966288Y-32866288D01*
X77032593Y-32767054D01*
X77055877Y-32650000D01*
X77055877Y-31909809D01*
X77215686Y-31750000D01*
X79142000Y-31750000D01*
X79142000Y-31844000D01*
X79142000Y-31844000D01*
G37*
X79142000Y-31844000D02*
X79294000Y-31996000D01*
X80596000Y-31996000D01*
X80596000Y-31976000D01*
X80904000Y-31976000D01*
X80904000Y-31996000D01*
X82206000Y-31996000D01*
X82358000Y-31844000D01*
X82358000Y-31750000D01*
X84450000Y-31750000D01*
X84450000Y-32950000D01*
X84480448Y-33103074D01*
X84567157Y-33232843D01*
X84944123Y-33609809D01*
X84944123Y-34250000D01*
X84967407Y-34367054D01*
X85022829Y-34450000D01*
X82550000Y-34450000D01*
X82817878Y-34396716D01*
X83044975Y-34244975D01*
X83196716Y-34017878D01*
X83250000Y-33750000D01*
X83196716Y-33482122D01*
X83044975Y-33255025D01*
X82817878Y-33103284D01*
X82550000Y-33050000D01*
X82209842Y-33050000D01*
X82265438Y-32994404D01*
X82358000Y-32770938D01*
X82358000Y-32456000D01*
X82206000Y-32304000D01*
X80904000Y-32304000D01*
X80904000Y-32324000D01*
X80596000Y-32324000D01*
X80596000Y-32304000D01*
X79294000Y-32304000D01*
X79142000Y-32456000D01*
X79142000Y-32770938D01*
X79234562Y-32994404D01*
X79405595Y-33165437D01*
X79456731Y-33186618D01*
X79444123Y-33250000D01*
X79444123Y-34250000D01*
X79467407Y-34367054D01*
X79522829Y-34450000D01*
X76977171Y-34450000D01*
X77032593Y-34367054D01*
X77055877Y-34250000D01*
X77055877Y-33250000D01*
X77032593Y-33132946D01*
X76966288Y-33033712D01*
X76867054Y-32967407D01*
X76779545Y-32950000D01*
X76867054Y-32932593D01*
X76966288Y-32866288D01*
X77032593Y-32767054D01*
X77055877Y-32650000D01*
X77055877Y-31909809D01*
X77215686Y-31750000D01*
X79142000Y-31750000D01*
X79142000Y-31844000D01*
G36*
X89642000Y-31844000D02*
X89794000Y-31996000D01*
X91096000Y-31996000D01*
X91096000Y-31976000D01*
X91404000Y-31976000D01*
X91404000Y-31996000D01*
X91424000Y-31996000D01*
X91424000Y-32304000D01*
X91404000Y-32304000D01*
X91404000Y-32324000D01*
X91096000Y-32324000D01*
X91096000Y-32304000D01*
X89794000Y-32304000D01*
X89642000Y-32456000D01*
X89642000Y-32770938D01*
X89734562Y-32994404D01*
X89905595Y-33165437D01*
X89956731Y-33186618D01*
X89944123Y-33250000D01*
X89944123Y-34171060D01*
X89896927Y-34180448D01*
X89780324Y-34258359D01*
X89767157Y-34267157D01*
X89584314Y-34450000D01*
X88050000Y-34450000D01*
X88050000Y-33050000D01*
X88028885Y-32943849D01*
X88019552Y-32896926D01*
X87932843Y-32767157D01*
X87555877Y-32390191D01*
X87555877Y-31750000D01*
X89642000Y-31750000D01*
X89642000Y-31844000D01*
X89642000Y-31844000D01*
G37*
X89642000Y-31844000D02*
X89794000Y-31996000D01*
X91096000Y-31996000D01*
X91096000Y-31976000D01*
X91404000Y-31976000D01*
X91404000Y-31996000D01*
X91424000Y-31996000D01*
X91424000Y-32304000D01*
X91404000Y-32304000D01*
X91404000Y-32324000D01*
X91096000Y-32324000D01*
X91096000Y-32304000D01*
X89794000Y-32304000D01*
X89642000Y-32456000D01*
X89642000Y-32770938D01*
X89734562Y-32994404D01*
X89905595Y-33165437D01*
X89956731Y-33186618D01*
X89944123Y-33250000D01*
X89944123Y-34171060D01*
X89896927Y-34180448D01*
X89780324Y-34258359D01*
X89767157Y-34267157D01*
X89584314Y-34450000D01*
X88050000Y-34450000D01*
X88050000Y-33050000D01*
X88028885Y-32943849D01*
X88019552Y-32896926D01*
X87932843Y-32767157D01*
X87555877Y-32390191D01*
X87555877Y-31750000D01*
X89642000Y-31750000D01*
X89642000Y-31844000D01*
G36*
X47642000Y-31844000D02*
X47794000Y-31996000D01*
X49096000Y-31996000D01*
X49096000Y-31976000D01*
X49404000Y-31976000D01*
X49404000Y-31996000D01*
X50706000Y-31996000D01*
X50858000Y-31844000D01*
X50858000Y-31750000D01*
X51684314Y-31750000D01*
X53444123Y-33509809D01*
X53444123Y-34150000D01*
X51608435Y-34150000D01*
X51696716Y-34017878D01*
X51750000Y-33750000D01*
X51696716Y-33482122D01*
X51544975Y-33255025D01*
X51317878Y-33103284D01*
X51050000Y-33050000D01*
X50709842Y-33050000D01*
X50765438Y-32994404D01*
X50858000Y-32770938D01*
X50858000Y-32456000D01*
X50706000Y-32304000D01*
X49404000Y-32304000D01*
X49404000Y-32324000D01*
X49096000Y-32324000D01*
X49096000Y-32304000D01*
X47794000Y-32304000D01*
X47642000Y-32456000D01*
X47642000Y-32770938D01*
X47734562Y-32994404D01*
X47905595Y-33165437D01*
X47956731Y-33186618D01*
X47944123Y-33250000D01*
X47944123Y-34150000D01*
X45555877Y-34150000D01*
X45555877Y-33250000D01*
X45532593Y-33132946D01*
X45466288Y-33033712D01*
X45367054Y-32967407D01*
X45279545Y-32950000D01*
X45367054Y-32932593D01*
X45466288Y-32866288D01*
X45532593Y-32767054D01*
X45555877Y-32650000D01*
X45555877Y-31909809D01*
X45715686Y-31750000D01*
X47642000Y-31750000D01*
X47642000Y-31844000D01*
X47642000Y-31844000D01*
G37*
X47642000Y-31844000D02*
X47794000Y-31996000D01*
X49096000Y-31996000D01*
X49096000Y-31976000D01*
X49404000Y-31976000D01*
X49404000Y-31996000D01*
X50706000Y-31996000D01*
X50858000Y-31844000D01*
X50858000Y-31750000D01*
X51684314Y-31750000D01*
X53444123Y-33509809D01*
X53444123Y-34150000D01*
X51608435Y-34150000D01*
X51696716Y-34017878D01*
X51750000Y-33750000D01*
X51696716Y-33482122D01*
X51544975Y-33255025D01*
X51317878Y-33103284D01*
X51050000Y-33050000D01*
X50709842Y-33050000D01*
X50765438Y-32994404D01*
X50858000Y-32770938D01*
X50858000Y-32456000D01*
X50706000Y-32304000D01*
X49404000Y-32304000D01*
X49404000Y-32324000D01*
X49096000Y-32324000D01*
X49096000Y-32304000D01*
X47794000Y-32304000D01*
X47642000Y-32456000D01*
X47642000Y-32770938D01*
X47734562Y-32994404D01*
X47905595Y-33165437D01*
X47956731Y-33186618D01*
X47944123Y-33250000D01*
X47944123Y-34150000D01*
X45555877Y-34150000D01*
X45555877Y-33250000D01*
X45532593Y-33132946D01*
X45466288Y-33033712D01*
X45367054Y-32967407D01*
X45279545Y-32950000D01*
X45367054Y-32932593D01*
X45466288Y-32866288D01*
X45532593Y-32767054D01*
X45555877Y-32650000D01*
X45555877Y-31909809D01*
X45715686Y-31750000D01*
X47642000Y-31750000D01*
X47642000Y-31844000D01*
G36*
X37142000Y-31844000D02*
X37294000Y-31996000D01*
X38596000Y-31996000D01*
X38596000Y-31976000D01*
X38904000Y-31976000D01*
X38904000Y-31996000D01*
X40206000Y-31996000D01*
X40358000Y-31844000D01*
X40358000Y-31750000D01*
X41184314Y-31750000D01*
X42944123Y-33509809D01*
X42944123Y-34150000D01*
X41108435Y-34150000D01*
X41196716Y-34017878D01*
X41250000Y-33750000D01*
X41196716Y-33482122D01*
X41044975Y-33255025D01*
X40817878Y-33103284D01*
X40550000Y-33050000D01*
X40209842Y-33050000D01*
X40265438Y-32994404D01*
X40358000Y-32770938D01*
X40358000Y-32456000D01*
X40206000Y-32304000D01*
X38904000Y-32304000D01*
X38904000Y-32324000D01*
X38596000Y-32324000D01*
X38596000Y-32304000D01*
X37294000Y-32304000D01*
X37142000Y-32456000D01*
X37142000Y-32770938D01*
X37234562Y-32994404D01*
X37405595Y-33165437D01*
X37456731Y-33186618D01*
X37444123Y-33250000D01*
X37444123Y-34150000D01*
X36015686Y-34150000D01*
X35332843Y-33467157D01*
X35203074Y-33380448D01*
X35055877Y-33351169D01*
X35055877Y-33250000D01*
X35032593Y-33132946D01*
X34966288Y-33033712D01*
X34867054Y-32967407D01*
X34779545Y-32950000D01*
X34867054Y-32932593D01*
X34966288Y-32866288D01*
X35032593Y-32767054D01*
X35055877Y-32650000D01*
X35055877Y-31909809D01*
X35215686Y-31750000D01*
X37142000Y-31750000D01*
X37142000Y-31844000D01*
X37142000Y-31844000D01*
G37*
X37142000Y-31844000D02*
X37294000Y-31996000D01*
X38596000Y-31996000D01*
X38596000Y-31976000D01*
X38904000Y-31976000D01*
X38904000Y-31996000D01*
X40206000Y-31996000D01*
X40358000Y-31844000D01*
X40358000Y-31750000D01*
X41184314Y-31750000D01*
X42944123Y-33509809D01*
X42944123Y-34150000D01*
X41108435Y-34150000D01*
X41196716Y-34017878D01*
X41250000Y-33750000D01*
X41196716Y-33482122D01*
X41044975Y-33255025D01*
X40817878Y-33103284D01*
X40550000Y-33050000D01*
X40209842Y-33050000D01*
X40265438Y-32994404D01*
X40358000Y-32770938D01*
X40358000Y-32456000D01*
X40206000Y-32304000D01*
X38904000Y-32304000D01*
X38904000Y-32324000D01*
X38596000Y-32324000D01*
X38596000Y-32304000D01*
X37294000Y-32304000D01*
X37142000Y-32456000D01*
X37142000Y-32770938D01*
X37234562Y-32994404D01*
X37405595Y-33165437D01*
X37456731Y-33186618D01*
X37444123Y-33250000D01*
X37444123Y-34150000D01*
X36015686Y-34150000D01*
X35332843Y-33467157D01*
X35203074Y-33380448D01*
X35055877Y-33351169D01*
X35055877Y-33250000D01*
X35032593Y-33132946D01*
X34966288Y-33033712D01*
X34867054Y-32967407D01*
X34779545Y-32950000D01*
X34867054Y-32932593D01*
X34966288Y-32866288D01*
X35032593Y-32767054D01*
X35055877Y-32650000D01*
X35055877Y-31909809D01*
X35215686Y-31750000D01*
X37142000Y-31750000D01*
X37142000Y-31844000D01*
G36*
X58142000Y-31844000D02*
X58294000Y-31996000D01*
X59596000Y-31996000D01*
X59596000Y-31976000D01*
X59904000Y-31976000D01*
X59904000Y-31996000D01*
X61206000Y-31996000D01*
X61358000Y-31844000D01*
X61358000Y-31750000D01*
X62184314Y-31750000D01*
X63944123Y-33509809D01*
X63944123Y-34150000D01*
X62108435Y-34150000D01*
X62196716Y-34017878D01*
X62250000Y-33750000D01*
X62196716Y-33482122D01*
X62044975Y-33255025D01*
X61817878Y-33103284D01*
X61550000Y-33050000D01*
X61209842Y-33050000D01*
X61265438Y-32994404D01*
X61358000Y-32770938D01*
X61358000Y-32456000D01*
X61206000Y-32304000D01*
X59904000Y-32304000D01*
X59904000Y-32324000D01*
X59596000Y-32324000D01*
X59596000Y-32304000D01*
X58294000Y-32304000D01*
X58142000Y-32456000D01*
X58142000Y-32770938D01*
X58234562Y-32994404D01*
X58405595Y-33165437D01*
X58456731Y-33186618D01*
X58444123Y-33250000D01*
X58444123Y-34150000D01*
X56055877Y-34150000D01*
X56055877Y-33250000D01*
X56032593Y-33132946D01*
X55966288Y-33033712D01*
X55867054Y-32967407D01*
X55779545Y-32950000D01*
X55867054Y-32932593D01*
X55966288Y-32866288D01*
X56032593Y-32767054D01*
X56055877Y-32650000D01*
X56055877Y-31909809D01*
X56215686Y-31750000D01*
X58142000Y-31750000D01*
X58142000Y-31844000D01*
X58142000Y-31844000D01*
G37*
X58142000Y-31844000D02*
X58294000Y-31996000D01*
X59596000Y-31996000D01*
X59596000Y-31976000D01*
X59904000Y-31976000D01*
X59904000Y-31996000D01*
X61206000Y-31996000D01*
X61358000Y-31844000D01*
X61358000Y-31750000D01*
X62184314Y-31750000D01*
X63944123Y-33509809D01*
X63944123Y-34150000D01*
X62108435Y-34150000D01*
X62196716Y-34017878D01*
X62250000Y-33750000D01*
X62196716Y-33482122D01*
X62044975Y-33255025D01*
X61817878Y-33103284D01*
X61550000Y-33050000D01*
X61209842Y-33050000D01*
X61265438Y-32994404D01*
X61358000Y-32770938D01*
X61358000Y-32456000D01*
X61206000Y-32304000D01*
X59904000Y-32304000D01*
X59904000Y-32324000D01*
X59596000Y-32324000D01*
X59596000Y-32304000D01*
X58294000Y-32304000D01*
X58142000Y-32456000D01*
X58142000Y-32770938D01*
X58234562Y-32994404D01*
X58405595Y-33165437D01*
X58456731Y-33186618D01*
X58444123Y-33250000D01*
X58444123Y-34150000D01*
X56055877Y-34150000D01*
X56055877Y-33250000D01*
X56032593Y-33132946D01*
X55966288Y-33033712D01*
X55867054Y-32967407D01*
X55779545Y-32950000D01*
X55867054Y-32932593D01*
X55966288Y-32866288D01*
X56032593Y-32767054D01*
X56055877Y-32650000D01*
X56055877Y-31909809D01*
X56215686Y-31750000D01*
X58142000Y-31750000D01*
X58142000Y-31844000D01*
G36*
X94600000Y-54600000D02*
X30400000Y-54600000D01*
X30400000Y-37750000D01*
X31944123Y-37750000D01*
X31944123Y-52750000D01*
X31967407Y-52867054D01*
X32033712Y-52966288D01*
X32132946Y-53032593D01*
X32250000Y-53055877D01*
X40250000Y-53055877D01*
X40367054Y-53032593D01*
X40466288Y-52966288D01*
X40532593Y-52867054D01*
X40555877Y-52750000D01*
X40555877Y-39904459D01*
X40609683Y-39958359D01*
X40830129Y-40049896D01*
X41068824Y-40050104D01*
X41289429Y-39958952D01*
X41458359Y-39790317D01*
X41549896Y-39569871D01*
X41550104Y-39331176D01*
X41458952Y-39110571D01*
X41290317Y-38941641D01*
X41069871Y-38850104D01*
X40831176Y-38849896D01*
X40610571Y-38941048D01*
X40555877Y-38995646D01*
X40555877Y-37750000D01*
X42444123Y-37750000D01*
X42444123Y-52750000D01*
X42467407Y-52867054D01*
X42533712Y-52966288D01*
X42632946Y-53032593D01*
X42750000Y-53055877D01*
X50750000Y-53055877D01*
X50867054Y-53032593D01*
X50966288Y-52966288D01*
X51032593Y-52867054D01*
X51055877Y-52750000D01*
X51055877Y-39904459D01*
X51109683Y-39958359D01*
X51330129Y-40049896D01*
X51568824Y-40050104D01*
X51789429Y-39958952D01*
X51958359Y-39790317D01*
X52049896Y-39569871D01*
X52050104Y-39331176D01*
X51958952Y-39110571D01*
X51790317Y-38941641D01*
X51569871Y-38850104D01*
X51331176Y-38849896D01*
X51110571Y-38941048D01*
X51055877Y-38995646D01*
X51055877Y-37750000D01*
X52944123Y-37750000D01*
X52944123Y-52750000D01*
X52967407Y-52867054D01*
X53033712Y-52966288D01*
X53132946Y-53032593D01*
X53250000Y-53055877D01*
X61250000Y-53055877D01*
X61367054Y-53032593D01*
X61466288Y-52966288D01*
X61532593Y-52867054D01*
X61555877Y-52750000D01*
X61555877Y-39904459D01*
X61609683Y-39958359D01*
X61830129Y-40049896D01*
X62068824Y-40050104D01*
X62289429Y-39958952D01*
X62458359Y-39790317D01*
X62549896Y-39569871D01*
X62550104Y-39331176D01*
X62458952Y-39110571D01*
X62290317Y-38941641D01*
X62069871Y-38850104D01*
X61831176Y-38849896D01*
X61610571Y-38941048D01*
X61555877Y-38995646D01*
X61555877Y-37750000D01*
X63444123Y-37750000D01*
X63444123Y-52750000D01*
X63467407Y-52867054D01*
X63533712Y-52966288D01*
X63632946Y-53032593D01*
X63750000Y-53055877D01*
X71750000Y-53055877D01*
X71867054Y-53032593D01*
X71966288Y-52966288D01*
X72032593Y-52867054D01*
X72055877Y-52750000D01*
X72055877Y-40104459D01*
X72109683Y-40158359D01*
X72330129Y-40249896D01*
X72568824Y-40250104D01*
X72789429Y-40158952D01*
X72958359Y-39990317D01*
X73049896Y-39769871D01*
X73050104Y-39531176D01*
X72958952Y-39310571D01*
X72790317Y-39141641D01*
X72569871Y-39050104D01*
X72331176Y-39049896D01*
X72110571Y-39141048D01*
X72055877Y-39195646D01*
X72055877Y-37750000D01*
X72032593Y-37632946D01*
X71966288Y-37533712D01*
X71867054Y-37467407D01*
X71750000Y-37444123D01*
X63750000Y-37444123D01*
X63632946Y-37467407D01*
X63533712Y-37533712D01*
X63467407Y-37632946D01*
X63444123Y-37750000D01*
X61555877Y-37750000D01*
X61532593Y-37632946D01*
X61466288Y-37533712D01*
X61367054Y-37467407D01*
X61250000Y-37444123D01*
X53250000Y-37444123D01*
X53132946Y-37467407D01*
X53033712Y-37533712D01*
X52967407Y-37632946D01*
X52944123Y-37750000D01*
X51055877Y-37750000D01*
X51032593Y-37632946D01*
X50966288Y-37533712D01*
X50867054Y-37467407D01*
X50750000Y-37444123D01*
X42750000Y-37444123D01*
X42632946Y-37467407D01*
X42533712Y-37533712D01*
X42467407Y-37632946D01*
X42444123Y-37750000D01*
X40555877Y-37750000D01*
X40532593Y-37632946D01*
X40466288Y-37533712D01*
X40367054Y-37467407D01*
X40250000Y-37444123D01*
X32250000Y-37444123D01*
X32132946Y-37467407D01*
X32033712Y-37533712D01*
X31967407Y-37632946D01*
X31944123Y-37750000D01*
X30400000Y-37750000D01*
X30400000Y-31650000D01*
X32444123Y-31650000D01*
X32444123Y-32650000D01*
X32450000Y-32679545D01*
X32450000Y-33220455D01*
X32444123Y-33250000D01*
X32444123Y-34250000D01*
X32450000Y-34279545D01*
X32450000Y-34750000D01*
X32457007Y-34785228D01*
X32444123Y-34850000D01*
X32444123Y-35850000D01*
X32467407Y-35967054D01*
X32533712Y-36066288D01*
X32632946Y-36132593D01*
X32750000Y-36155877D01*
X34750000Y-36155877D01*
X34867054Y-36132593D01*
X34966288Y-36066288D01*
X34977171Y-36050000D01*
X35650000Y-36050000D01*
X35917878Y-35996716D01*
X36144975Y-35844975D01*
X36296716Y-35617878D01*
X36350000Y-35350000D01*
X36296716Y-35082122D01*
X36208435Y-34950000D01*
X37444123Y-34950000D01*
X37444123Y-35850000D01*
X37467407Y-35967054D01*
X37533712Y-36066288D01*
X37632946Y-36132593D01*
X37750000Y-36155877D01*
X39750000Y-36155877D01*
X39867054Y-36132593D01*
X39966288Y-36066288D01*
X40032593Y-35967054D01*
X40055877Y-35850000D01*
X40055877Y-34950000D01*
X42944123Y-34950000D01*
X42944123Y-35850000D01*
X42967407Y-35967054D01*
X43033712Y-36066288D01*
X43132946Y-36132593D01*
X43250000Y-36155877D01*
X45250000Y-36155877D01*
X45367054Y-36132593D01*
X45466288Y-36066288D01*
X45477171Y-36050000D01*
X46150000Y-36050000D01*
X46417878Y-35996716D01*
X46644975Y-35844975D01*
X46796716Y-35617878D01*
X46850000Y-35350000D01*
X46796716Y-35082122D01*
X46708435Y-34950000D01*
X47944123Y-34950000D01*
X47944123Y-35850000D01*
X47967407Y-35967054D01*
X48033712Y-36066288D01*
X48132946Y-36132593D01*
X48250000Y-36155877D01*
X50250000Y-36155877D01*
X50367054Y-36132593D01*
X50466288Y-36066288D01*
X50532593Y-35967054D01*
X50555877Y-35850000D01*
X50555877Y-34950000D01*
X53444123Y-34950000D01*
X53444123Y-35850000D01*
X53467407Y-35967054D01*
X53533712Y-36066288D01*
X53632946Y-36132593D01*
X53750000Y-36155877D01*
X55750000Y-36155877D01*
X55867054Y-36132593D01*
X55966288Y-36066288D01*
X55977171Y-36050000D01*
X56650000Y-36050000D01*
X56917878Y-35996716D01*
X57144975Y-35844975D01*
X57296716Y-35617878D01*
X57350000Y-35350000D01*
X57296716Y-35082122D01*
X57208435Y-34950000D01*
X58444123Y-34950000D01*
X58444123Y-35850000D01*
X58467407Y-35967054D01*
X58533712Y-36066288D01*
X58632946Y-36132593D01*
X58750000Y-36155877D01*
X60750000Y-36155877D01*
X60867054Y-36132593D01*
X60966288Y-36066288D01*
X61032593Y-35967054D01*
X61055877Y-35850000D01*
X61055877Y-34950000D01*
X63944123Y-34950000D01*
X63944123Y-35850000D01*
X63967407Y-35967054D01*
X64033712Y-36066288D01*
X64132946Y-36132593D01*
X64250000Y-36155877D01*
X66250000Y-36155877D01*
X66367054Y-36132593D01*
X66466288Y-36066288D01*
X66477171Y-36050000D01*
X67150000Y-36050000D01*
X67417878Y-35996716D01*
X67644975Y-35844975D01*
X67796716Y-35617878D01*
X67850000Y-35350000D01*
X67796716Y-35082122D01*
X67708435Y-34950000D01*
X68084314Y-34950000D01*
X68450000Y-35315686D01*
X68450000Y-35950000D01*
X68480448Y-36103074D01*
X68567157Y-36232843D01*
X68867157Y-36532843D01*
X68996926Y-36619552D01*
X69150000Y-36650000D01*
X72284314Y-36650000D01*
X72850000Y-37215686D01*
X72850000Y-38201513D01*
X72741641Y-38309683D01*
X72650104Y-38530129D01*
X72649896Y-38768824D01*
X72741048Y-38989429D01*
X72909683Y-39158359D01*
X73130129Y-39249896D01*
X73368824Y-39250104D01*
X73589429Y-39158952D01*
X73758359Y-38990317D01*
X73849896Y-38769871D01*
X73850104Y-38531176D01*
X73758952Y-38310571D01*
X73650000Y-38201428D01*
X73650000Y-37750000D01*
X73944123Y-37750000D01*
X73944123Y-52750000D01*
X73967407Y-52867054D01*
X74033712Y-52966288D01*
X74132946Y-53032593D01*
X74250000Y-53055877D01*
X82250000Y-53055877D01*
X82367054Y-53032593D01*
X82466288Y-52966288D01*
X82532593Y-52867054D01*
X82555877Y-52750000D01*
X82555877Y-39504459D01*
X82609683Y-39558359D01*
X82830129Y-39649896D01*
X83068824Y-39650104D01*
X83289429Y-39558952D01*
X83458359Y-39390317D01*
X83549896Y-39169871D01*
X83550104Y-38931176D01*
X83458952Y-38710571D01*
X83290317Y-38541641D01*
X83069871Y-38450104D01*
X82831176Y-38449896D01*
X82610571Y-38541048D01*
X82555877Y-38595646D01*
X82555877Y-37750000D01*
X82532593Y-37632946D01*
X82466288Y-37533712D01*
X82367054Y-37467407D01*
X82250000Y-37444123D01*
X74250000Y-37444123D01*
X74132946Y-37467407D01*
X74033712Y-37533712D01*
X73967407Y-37632946D01*
X73944123Y-37750000D01*
X73650000Y-37750000D01*
X73650000Y-37050005D01*
X73650001Y-37050000D01*
X73619552Y-36896926D01*
X73532843Y-36767157D01*
X72732843Y-35967157D01*
X72603074Y-35880448D01*
X72450000Y-35850000D01*
X71555877Y-35850000D01*
X71555877Y-34850000D01*
X74444123Y-34850000D01*
X74444123Y-35850000D01*
X74467407Y-35967054D01*
X74533712Y-36066288D01*
X74632946Y-36132593D01*
X74750000Y-36155877D01*
X76750000Y-36155877D01*
X76867054Y-36132593D01*
X76966288Y-36066288D01*
X76977171Y-36050000D01*
X77650000Y-36050000D01*
X77917878Y-35996716D01*
X78144975Y-35844975D01*
X78296716Y-35617878D01*
X78350000Y-35350000D01*
X78296716Y-35082122D01*
X78144975Y-34855025D01*
X78137455Y-34850000D01*
X79444123Y-34850000D01*
X79444123Y-35850000D01*
X79467407Y-35967054D01*
X79533712Y-36066288D01*
X79632946Y-36132593D01*
X79750000Y-36155877D01*
X81750000Y-36155877D01*
X81867054Y-36132593D01*
X81966288Y-36066288D01*
X82032593Y-35967054D01*
X82055877Y-35850000D01*
X82055877Y-34850000D01*
X84262545Y-34850000D01*
X84255025Y-34855025D01*
X84103284Y-35082122D01*
X84051765Y-35341129D01*
X83396447Y-35996447D01*
X83288060Y-36158658D01*
X83250000Y-36350000D01*
X83250000Y-37801339D01*
X83241641Y-37809683D01*
X83150104Y-38030129D01*
X83149896Y-38268824D01*
X83241048Y-38489429D01*
X83409683Y-38658359D01*
X83630129Y-38749896D01*
X83868824Y-38750104D01*
X84089429Y-38658952D01*
X84258359Y-38490317D01*
X84349896Y-38269871D01*
X84350104Y-38031176D01*
X84258952Y-37810571D01*
X84250000Y-37801603D01*
X84250000Y-36557106D01*
X84757107Y-36050000D01*
X85022829Y-36050000D01*
X85033712Y-36066288D01*
X85132946Y-36132593D01*
X85250000Y-36155877D01*
X87250000Y-36155877D01*
X87367054Y-36132593D01*
X87466288Y-36066288D01*
X87506574Y-36005995D01*
X87541048Y-36089429D01*
X87662066Y-36210658D01*
X87680448Y-36303074D01*
X87767157Y-36432843D01*
X88250029Y-36915715D01*
X88249896Y-37068824D01*
X88341048Y-37289429D01*
X88495472Y-37444123D01*
X84750000Y-37444123D01*
X84632946Y-37467407D01*
X84533712Y-37533712D01*
X84467407Y-37632946D01*
X84444123Y-37750000D01*
X84444123Y-39650000D01*
X84298487Y-39650000D01*
X84190317Y-39541641D01*
X83969871Y-39450104D01*
X83731176Y-39449896D01*
X83510571Y-39541048D01*
X83341641Y-39709683D01*
X83250104Y-39930129D01*
X83249896Y-40168824D01*
X83341048Y-40389429D01*
X83509683Y-40558359D01*
X83730129Y-40649896D01*
X83968824Y-40650104D01*
X84189429Y-40558952D01*
X84298572Y-40450000D01*
X84444123Y-40450000D01*
X84444123Y-52750000D01*
X84467407Y-52867054D01*
X84533712Y-52966288D01*
X84632946Y-53032593D01*
X84750000Y-53055877D01*
X92750000Y-53055877D01*
X92867054Y-53032593D01*
X92966288Y-52966288D01*
X93032593Y-52867054D01*
X93055877Y-52750000D01*
X93055877Y-37750000D01*
X93032593Y-37632946D01*
X92966288Y-37533712D01*
X92867054Y-37467407D01*
X92750000Y-37444123D01*
X89204284Y-37444123D01*
X89358359Y-37290317D01*
X89449896Y-37069871D01*
X89450104Y-36831176D01*
X89358952Y-36610571D01*
X89190317Y-36441641D01*
X88969871Y-36350104D01*
X88968826Y-36350103D01*
X89189429Y-36258952D01*
X89358359Y-36090317D01*
X89449896Y-35869871D01*
X89450030Y-35715656D01*
X89944123Y-35221563D01*
X89944123Y-35850000D01*
X89967407Y-35967054D01*
X90033712Y-36066288D01*
X90132946Y-36132593D01*
X90250000Y-36155877D01*
X92250000Y-36155877D01*
X92367054Y-36132593D01*
X92466288Y-36066288D01*
X92532593Y-35967054D01*
X92555877Y-35850000D01*
X92555877Y-34928940D01*
X92603074Y-34919552D01*
X92732843Y-34832843D01*
X93938990Y-33626695D01*
X93938993Y-33626693D01*
X93993595Y-33544975D01*
X94025702Y-33496924D01*
X94056151Y-33343850D01*
X94056150Y-33343845D01*
X94056150Y-32604710D01*
X94025702Y-32451637D01*
X93938993Y-32321867D01*
X93938990Y-32321865D01*
X92684282Y-31067156D01*
X92554513Y-30980447D01*
X92401439Y-30949999D01*
X77050001Y-30949999D01*
X76896928Y-30980447D01*
X76896926Y-30980448D01*
X76896927Y-30980448D01*
X76767158Y-31067156D01*
X76490191Y-31344123D01*
X74750000Y-31344123D01*
X74632946Y-31367407D01*
X74533712Y-31433712D01*
X74467407Y-31532946D01*
X74444123Y-31650000D01*
X74444123Y-32378437D01*
X73132842Y-31067156D01*
X73003073Y-30980447D01*
X72849999Y-30949999D01*
X66550001Y-30949999D01*
X66396928Y-30980447D01*
X66396926Y-30980448D01*
X66396927Y-30980448D01*
X66267158Y-31067156D01*
X65990191Y-31344123D01*
X64250000Y-31344123D01*
X64132946Y-31367407D01*
X64033712Y-31433712D01*
X63967407Y-31532946D01*
X63944123Y-31650000D01*
X63944123Y-32378437D01*
X62632842Y-31067156D01*
X62503073Y-30980447D01*
X62349999Y-30949999D01*
X56050001Y-30949999D01*
X55896928Y-30980447D01*
X55896926Y-30980448D01*
X55896927Y-30980448D01*
X55767158Y-31067156D01*
X55490191Y-31344123D01*
X53750000Y-31344123D01*
X53632946Y-31367407D01*
X53533712Y-31433712D01*
X53467407Y-31532946D01*
X53444123Y-31650000D01*
X53444123Y-32378437D01*
X52132842Y-31067156D01*
X52003073Y-30980447D01*
X51849999Y-30949999D01*
X45550001Y-30949999D01*
X45396928Y-30980447D01*
X45396926Y-30980448D01*
X45396927Y-30980448D01*
X45267158Y-31067156D01*
X44990191Y-31344123D01*
X43250000Y-31344123D01*
X43132946Y-31367407D01*
X43033712Y-31433712D01*
X42967407Y-31532946D01*
X42944123Y-31650000D01*
X42944123Y-32378437D01*
X41632842Y-31067156D01*
X41503073Y-30980447D01*
X41349999Y-30949999D01*
X35050001Y-30949999D01*
X34896928Y-30980447D01*
X34896926Y-30980448D01*
X34896927Y-30980448D01*
X34767158Y-31067156D01*
X34490191Y-31344123D01*
X32750000Y-31344123D01*
X32720455Y-31350000D01*
X32550000Y-31350000D01*
X32511732Y-31357612D01*
X32479289Y-31379289D01*
X32457612Y-31411732D01*
X32450000Y-31450000D01*
X32450000Y-31620455D01*
X32444123Y-31650000D01*
X30400000Y-31650000D01*
X30400000Y-30400000D01*
X94600000Y-30400000D01*
X94600000Y-54600000D01*
X94600000Y-54600000D01*
G37*
X94600000Y-54600000D02*
X30400000Y-54600000D01*
X30400000Y-37750000D01*
X31944123Y-37750000D01*
X31944123Y-52750000D01*
X31967407Y-52867054D01*
X32033712Y-52966288D01*
X32132946Y-53032593D01*
X32250000Y-53055877D01*
X40250000Y-53055877D01*
X40367054Y-53032593D01*
X40466288Y-52966288D01*
X40532593Y-52867054D01*
X40555877Y-52750000D01*
X40555877Y-39904459D01*
X40609683Y-39958359D01*
X40830129Y-40049896D01*
X41068824Y-40050104D01*
X41289429Y-39958952D01*
X41458359Y-39790317D01*
X41549896Y-39569871D01*
X41550104Y-39331176D01*
X41458952Y-39110571D01*
X41290317Y-38941641D01*
X41069871Y-38850104D01*
X40831176Y-38849896D01*
X40610571Y-38941048D01*
X40555877Y-38995646D01*
X40555877Y-37750000D01*
X42444123Y-37750000D01*
X42444123Y-52750000D01*
X42467407Y-52867054D01*
X42533712Y-52966288D01*
X42632946Y-53032593D01*
X42750000Y-53055877D01*
X50750000Y-53055877D01*
X50867054Y-53032593D01*
X50966288Y-52966288D01*
X51032593Y-52867054D01*
X51055877Y-52750000D01*
X51055877Y-39904459D01*
X51109683Y-39958359D01*
X51330129Y-40049896D01*
X51568824Y-40050104D01*
X51789429Y-39958952D01*
X51958359Y-39790317D01*
X52049896Y-39569871D01*
X52050104Y-39331176D01*
X51958952Y-39110571D01*
X51790317Y-38941641D01*
X51569871Y-38850104D01*
X51331176Y-38849896D01*
X51110571Y-38941048D01*
X51055877Y-38995646D01*
X51055877Y-37750000D01*
X52944123Y-37750000D01*
X52944123Y-52750000D01*
X52967407Y-52867054D01*
X53033712Y-52966288D01*
X53132946Y-53032593D01*
X53250000Y-53055877D01*
X61250000Y-53055877D01*
X61367054Y-53032593D01*
X61466288Y-52966288D01*
X61532593Y-52867054D01*
X61555877Y-52750000D01*
X61555877Y-39904459D01*
X61609683Y-39958359D01*
X61830129Y-40049896D01*
X62068824Y-40050104D01*
X62289429Y-39958952D01*
X62458359Y-39790317D01*
X62549896Y-39569871D01*
X62550104Y-39331176D01*
X62458952Y-39110571D01*
X62290317Y-38941641D01*
X62069871Y-38850104D01*
X61831176Y-38849896D01*
X61610571Y-38941048D01*
X61555877Y-38995646D01*
X61555877Y-37750000D01*
X63444123Y-37750000D01*
X63444123Y-52750000D01*
X63467407Y-52867054D01*
X63533712Y-52966288D01*
X63632946Y-53032593D01*
X63750000Y-53055877D01*
X71750000Y-53055877D01*
X71867054Y-53032593D01*
X71966288Y-52966288D01*
X72032593Y-52867054D01*
X72055877Y-52750000D01*
X72055877Y-40104459D01*
X72109683Y-40158359D01*
X72330129Y-40249896D01*
X72568824Y-40250104D01*
X72789429Y-40158952D01*
X72958359Y-39990317D01*
X73049896Y-39769871D01*
X73050104Y-39531176D01*
X72958952Y-39310571D01*
X72790317Y-39141641D01*
X72569871Y-39050104D01*
X72331176Y-39049896D01*
X72110571Y-39141048D01*
X72055877Y-39195646D01*
X72055877Y-37750000D01*
X72032593Y-37632946D01*
X71966288Y-37533712D01*
X71867054Y-37467407D01*
X71750000Y-37444123D01*
X63750000Y-37444123D01*
X63632946Y-37467407D01*
X63533712Y-37533712D01*
X63467407Y-37632946D01*
X63444123Y-37750000D01*
X61555877Y-37750000D01*
X61532593Y-37632946D01*
X61466288Y-37533712D01*
X61367054Y-37467407D01*
X61250000Y-37444123D01*
X53250000Y-37444123D01*
X53132946Y-37467407D01*
X53033712Y-37533712D01*
X52967407Y-37632946D01*
X52944123Y-37750000D01*
X51055877Y-37750000D01*
X51032593Y-37632946D01*
X50966288Y-37533712D01*
X50867054Y-37467407D01*
X50750000Y-37444123D01*
X42750000Y-37444123D01*
X42632946Y-37467407D01*
X42533712Y-37533712D01*
X42467407Y-37632946D01*
X42444123Y-37750000D01*
X40555877Y-37750000D01*
X40532593Y-37632946D01*
X40466288Y-37533712D01*
X40367054Y-37467407D01*
X40250000Y-37444123D01*
X32250000Y-37444123D01*
X32132946Y-37467407D01*
X32033712Y-37533712D01*
X31967407Y-37632946D01*
X31944123Y-37750000D01*
X30400000Y-37750000D01*
X30400000Y-31650000D01*
X32444123Y-31650000D01*
X32444123Y-32650000D01*
X32450000Y-32679545D01*
X32450000Y-33220455D01*
X32444123Y-33250000D01*
X32444123Y-34250000D01*
X32450000Y-34279545D01*
X32450000Y-34750000D01*
X32457007Y-34785228D01*
X32444123Y-34850000D01*
X32444123Y-35850000D01*
X32467407Y-35967054D01*
X32533712Y-36066288D01*
X32632946Y-36132593D01*
X32750000Y-36155877D01*
X34750000Y-36155877D01*
X34867054Y-36132593D01*
X34966288Y-36066288D01*
X34977171Y-36050000D01*
X35650000Y-36050000D01*
X35917878Y-35996716D01*
X36144975Y-35844975D01*
X36296716Y-35617878D01*
X36350000Y-35350000D01*
X36296716Y-35082122D01*
X36208435Y-34950000D01*
X37444123Y-34950000D01*
X37444123Y-35850000D01*
X37467407Y-35967054D01*
X37533712Y-36066288D01*
X37632946Y-36132593D01*
X37750000Y-36155877D01*
X39750000Y-36155877D01*
X39867054Y-36132593D01*
X39966288Y-36066288D01*
X40032593Y-35967054D01*
X40055877Y-35850000D01*
X40055877Y-34950000D01*
X42944123Y-34950000D01*
X42944123Y-35850000D01*
X42967407Y-35967054D01*
X43033712Y-36066288D01*
X43132946Y-36132593D01*
X43250000Y-36155877D01*
X45250000Y-36155877D01*
X45367054Y-36132593D01*
X45466288Y-36066288D01*
X45477171Y-36050000D01*
X46150000Y-36050000D01*
X46417878Y-35996716D01*
X46644975Y-35844975D01*
X46796716Y-35617878D01*
X46850000Y-35350000D01*
X46796716Y-35082122D01*
X46708435Y-34950000D01*
X47944123Y-34950000D01*
X47944123Y-35850000D01*
X47967407Y-35967054D01*
X48033712Y-36066288D01*
X48132946Y-36132593D01*
X48250000Y-36155877D01*
X50250000Y-36155877D01*
X50367054Y-36132593D01*
X50466288Y-36066288D01*
X50532593Y-35967054D01*
X50555877Y-35850000D01*
X50555877Y-34950000D01*
X53444123Y-34950000D01*
X53444123Y-35850000D01*
X53467407Y-35967054D01*
X53533712Y-36066288D01*
X53632946Y-36132593D01*
X53750000Y-36155877D01*
X55750000Y-36155877D01*
X55867054Y-36132593D01*
X55966288Y-36066288D01*
X55977171Y-36050000D01*
X56650000Y-36050000D01*
X56917878Y-35996716D01*
X57144975Y-35844975D01*
X57296716Y-35617878D01*
X57350000Y-35350000D01*
X57296716Y-35082122D01*
X57208435Y-34950000D01*
X58444123Y-34950000D01*
X58444123Y-35850000D01*
X58467407Y-35967054D01*
X58533712Y-36066288D01*
X58632946Y-36132593D01*
X58750000Y-36155877D01*
X60750000Y-36155877D01*
X60867054Y-36132593D01*
X60966288Y-36066288D01*
X61032593Y-35967054D01*
X61055877Y-35850000D01*
X61055877Y-34950000D01*
X63944123Y-34950000D01*
X63944123Y-35850000D01*
X63967407Y-35967054D01*
X64033712Y-36066288D01*
X64132946Y-36132593D01*
X64250000Y-36155877D01*
X66250000Y-36155877D01*
X66367054Y-36132593D01*
X66466288Y-36066288D01*
X66477171Y-36050000D01*
X67150000Y-36050000D01*
X67417878Y-35996716D01*
X67644975Y-35844975D01*
X67796716Y-35617878D01*
X67850000Y-35350000D01*
X67796716Y-35082122D01*
X67708435Y-34950000D01*
X68084314Y-34950000D01*
X68450000Y-35315686D01*
X68450000Y-35950000D01*
X68480448Y-36103074D01*
X68567157Y-36232843D01*
X68867157Y-36532843D01*
X68996926Y-36619552D01*
X69150000Y-36650000D01*
X72284314Y-36650000D01*
X72850000Y-37215686D01*
X72850000Y-38201513D01*
X72741641Y-38309683D01*
X72650104Y-38530129D01*
X72649896Y-38768824D01*
X72741048Y-38989429D01*
X72909683Y-39158359D01*
X73130129Y-39249896D01*
X73368824Y-39250104D01*
X73589429Y-39158952D01*
X73758359Y-38990317D01*
X73849896Y-38769871D01*
X73850104Y-38531176D01*
X73758952Y-38310571D01*
X73650000Y-38201428D01*
X73650000Y-37750000D01*
X73944123Y-37750000D01*
X73944123Y-52750000D01*
X73967407Y-52867054D01*
X74033712Y-52966288D01*
X74132946Y-53032593D01*
X74250000Y-53055877D01*
X82250000Y-53055877D01*
X82367054Y-53032593D01*
X82466288Y-52966288D01*
X82532593Y-52867054D01*
X82555877Y-52750000D01*
X82555877Y-39504459D01*
X82609683Y-39558359D01*
X82830129Y-39649896D01*
X83068824Y-39650104D01*
X83289429Y-39558952D01*
X83458359Y-39390317D01*
X83549896Y-39169871D01*
X83550104Y-38931176D01*
X83458952Y-38710571D01*
X83290317Y-38541641D01*
X83069871Y-38450104D01*
X82831176Y-38449896D01*
X82610571Y-38541048D01*
X82555877Y-38595646D01*
X82555877Y-37750000D01*
X82532593Y-37632946D01*
X82466288Y-37533712D01*
X82367054Y-37467407D01*
X82250000Y-37444123D01*
X74250000Y-37444123D01*
X74132946Y-37467407D01*
X74033712Y-37533712D01*
X73967407Y-37632946D01*
X73944123Y-37750000D01*
X73650000Y-37750000D01*
X73650000Y-37050005D01*
X73650001Y-37050000D01*
X73619552Y-36896926D01*
X73532843Y-36767157D01*
X72732843Y-35967157D01*
X72603074Y-35880448D01*
X72450000Y-35850000D01*
X71555877Y-35850000D01*
X71555877Y-34850000D01*
X74444123Y-34850000D01*
X74444123Y-35850000D01*
X74467407Y-35967054D01*
X74533712Y-36066288D01*
X74632946Y-36132593D01*
X74750000Y-36155877D01*
X76750000Y-36155877D01*
X76867054Y-36132593D01*
X76966288Y-36066288D01*
X76977171Y-36050000D01*
X77650000Y-36050000D01*
X77917878Y-35996716D01*
X78144975Y-35844975D01*
X78296716Y-35617878D01*
X78350000Y-35350000D01*
X78296716Y-35082122D01*
X78144975Y-34855025D01*
X78137455Y-34850000D01*
X79444123Y-34850000D01*
X79444123Y-35850000D01*
X79467407Y-35967054D01*
X79533712Y-36066288D01*
X79632946Y-36132593D01*
X79750000Y-36155877D01*
X81750000Y-36155877D01*
X81867054Y-36132593D01*
X81966288Y-36066288D01*
X82032593Y-35967054D01*
X82055877Y-35850000D01*
X82055877Y-34850000D01*
X84262545Y-34850000D01*
X84255025Y-34855025D01*
X84103284Y-35082122D01*
X84051765Y-35341129D01*
X83396447Y-35996447D01*
X83288060Y-36158658D01*
X83250000Y-36350000D01*
X83250000Y-37801339D01*
X83241641Y-37809683D01*
X83150104Y-38030129D01*
X83149896Y-38268824D01*
X83241048Y-38489429D01*
X83409683Y-38658359D01*
X83630129Y-38749896D01*
X83868824Y-38750104D01*
X84089429Y-38658952D01*
X84258359Y-38490317D01*
X84349896Y-38269871D01*
X84350104Y-38031176D01*
X84258952Y-37810571D01*
X84250000Y-37801603D01*
X84250000Y-36557106D01*
X84757107Y-36050000D01*
X85022829Y-36050000D01*
X85033712Y-36066288D01*
X85132946Y-36132593D01*
X85250000Y-36155877D01*
X87250000Y-36155877D01*
X87367054Y-36132593D01*
X87466288Y-36066288D01*
X87506574Y-36005995D01*
X87541048Y-36089429D01*
X87662066Y-36210658D01*
X87680448Y-36303074D01*
X87767157Y-36432843D01*
X88250029Y-36915715D01*
X88249896Y-37068824D01*
X88341048Y-37289429D01*
X88495472Y-37444123D01*
X84750000Y-37444123D01*
X84632946Y-37467407D01*
X84533712Y-37533712D01*
X84467407Y-37632946D01*
X84444123Y-37750000D01*
X84444123Y-39650000D01*
X84298487Y-39650000D01*
X84190317Y-39541641D01*
X83969871Y-39450104D01*
X83731176Y-39449896D01*
X83510571Y-39541048D01*
X83341641Y-39709683D01*
X83250104Y-39930129D01*
X83249896Y-40168824D01*
X83341048Y-40389429D01*
X83509683Y-40558359D01*
X83730129Y-40649896D01*
X83968824Y-40650104D01*
X84189429Y-40558952D01*
X84298572Y-40450000D01*
X84444123Y-40450000D01*
X84444123Y-52750000D01*
X84467407Y-52867054D01*
X84533712Y-52966288D01*
X84632946Y-53032593D01*
X84750000Y-53055877D01*
X92750000Y-53055877D01*
X92867054Y-53032593D01*
X92966288Y-52966288D01*
X93032593Y-52867054D01*
X93055877Y-52750000D01*
X93055877Y-37750000D01*
X93032593Y-37632946D01*
X92966288Y-37533712D01*
X92867054Y-37467407D01*
X92750000Y-37444123D01*
X89204284Y-37444123D01*
X89358359Y-37290317D01*
X89449896Y-37069871D01*
X89450104Y-36831176D01*
X89358952Y-36610571D01*
X89190317Y-36441641D01*
X88969871Y-36350104D01*
X88968826Y-36350103D01*
X89189429Y-36258952D01*
X89358359Y-36090317D01*
X89449896Y-35869871D01*
X89450030Y-35715656D01*
X89944123Y-35221563D01*
X89944123Y-35850000D01*
X89967407Y-35967054D01*
X90033712Y-36066288D01*
X90132946Y-36132593D01*
X90250000Y-36155877D01*
X92250000Y-36155877D01*
X92367054Y-36132593D01*
X92466288Y-36066288D01*
X92532593Y-35967054D01*
X92555877Y-35850000D01*
X92555877Y-34928940D01*
X92603074Y-34919552D01*
X92732843Y-34832843D01*
X93938990Y-33626695D01*
X93938993Y-33626693D01*
X93993595Y-33544975D01*
X94025702Y-33496924D01*
X94056151Y-33343850D01*
X94056150Y-33343845D01*
X94056150Y-32604710D01*
X94025702Y-32451637D01*
X93938993Y-32321867D01*
X93938990Y-32321865D01*
X92684282Y-31067156D01*
X92554513Y-30980447D01*
X92401439Y-30949999D01*
X77050001Y-30949999D01*
X76896928Y-30980447D01*
X76896926Y-30980448D01*
X76896927Y-30980448D01*
X76767158Y-31067156D01*
X76490191Y-31344123D01*
X74750000Y-31344123D01*
X74632946Y-31367407D01*
X74533712Y-31433712D01*
X74467407Y-31532946D01*
X74444123Y-31650000D01*
X74444123Y-32378437D01*
X73132842Y-31067156D01*
X73003073Y-30980447D01*
X72849999Y-30949999D01*
X66550001Y-30949999D01*
X66396928Y-30980447D01*
X66396926Y-30980448D01*
X66396927Y-30980448D01*
X66267158Y-31067156D01*
X65990191Y-31344123D01*
X64250000Y-31344123D01*
X64132946Y-31367407D01*
X64033712Y-31433712D01*
X63967407Y-31532946D01*
X63944123Y-31650000D01*
X63944123Y-32378437D01*
X62632842Y-31067156D01*
X62503073Y-30980447D01*
X62349999Y-30949999D01*
X56050001Y-30949999D01*
X55896928Y-30980447D01*
X55896926Y-30980448D01*
X55896927Y-30980448D01*
X55767158Y-31067156D01*
X55490191Y-31344123D01*
X53750000Y-31344123D01*
X53632946Y-31367407D01*
X53533712Y-31433712D01*
X53467407Y-31532946D01*
X53444123Y-31650000D01*
X53444123Y-32378437D01*
X52132842Y-31067156D01*
X52003073Y-30980447D01*
X51849999Y-30949999D01*
X45550001Y-30949999D01*
X45396928Y-30980447D01*
X45396926Y-30980448D01*
X45396927Y-30980448D01*
X45267158Y-31067156D01*
X44990191Y-31344123D01*
X43250000Y-31344123D01*
X43132946Y-31367407D01*
X43033712Y-31433712D01*
X42967407Y-31532946D01*
X42944123Y-31650000D01*
X42944123Y-32378437D01*
X41632842Y-31067156D01*
X41503073Y-30980447D01*
X41349999Y-30949999D01*
X35050001Y-30949999D01*
X34896928Y-30980447D01*
X34896926Y-30980448D01*
X34896927Y-30980448D01*
X34767158Y-31067156D01*
X34490191Y-31344123D01*
X32750000Y-31344123D01*
X32720455Y-31350000D01*
X32550000Y-31350000D01*
X32511732Y-31357612D01*
X32479289Y-31379289D01*
X32457612Y-31411732D01*
X32450000Y-31450000D01*
X32450000Y-31620455D01*
X32444123Y-31650000D01*
X30400000Y-31650000D01*
X30400000Y-30400000D01*
X94600000Y-30400000D01*
X94600000Y-54600000D01*
M02*
