M48
;DRILL file {KiCad (2016-02-08 BZR 6543, Git 5349eb4)-product} date Sun Feb 21 23:51:41 2016
;FORMAT={-:-/ absolute / inch / decimal}
FMAT,2
INCH,TZ
T1C0.016
%
G90
G05
M72
T1
X1.2303Y-1.2303
X1.2303Y-2.1161
X1.4035Y-1.3917
X1.4035Y-1.435
X1.4587Y-1.3287
X1.5965Y-1.3287
X1.6122Y-1.5531
X1.6358Y-1.876
X1.6791Y-1.3287
X1.6949Y-1.4469
X1.8169Y-1.3917
X1.872Y-1.3287
X2.0098Y-1.3287
X2.0256Y-1.5531
X2.0453Y-1.6476
X2.0453Y-1.9744
X2.0886Y-1.3287
X2.1083Y-1.4469
X2.2303Y-1.3917
X2.2854Y-1.3287
X2.4232Y-1.3287
X2.439Y-1.502
X2.439Y-1.5531
X2.4587Y-1.6476
X2.4626Y-1.998
X2.5059Y-1.3287
X2.5217Y-1.4469
X2.6437Y-1.3917
X2.6988Y-1.3287
X2.8366Y-1.3287
X2.8406Y-2.1004
X2.8524Y-1.561
X2.876Y-1.6004
X2.8839Y-1.5217
X2.8878Y-1.8327
X2.9154Y-1.3287
X2.935Y-1.4469
X3.0098Y-2.1004
X3.0571Y-1.3917
X3.1122Y-1.3287
X3.25Y-1.3287
X3.2657Y-1.5374
X3.2972Y-1.502
X3.3012Y-1.5768
X3.3327Y-1.3287
X3.3366Y-1.3917
X3.3484Y-1.4488
X3.4626Y-1.4547
X3.4665Y-1.4075
X3.498Y-1.4075
X3.498Y-1.4547
X3.5256Y-1.3287
X3.6594Y-1.3012
X3.6909Y-1.2303
X3.6909Y-2.1161
T0
M30
