G04 #@! TF.FileFunction,Soldermask,Bot*
%FSLAX46Y46*%
G04 Gerber Fmt 4.6, Leading zero omitted, Abs format (unit mm)*
G04 Created by KiCad (PCBNEW (2016-02-08 BZR 6543, Git 5349eb4)-product) date Sun Feb 21 23:51:38 2016*
%MOMM*%
G01*
G04 APERTURE LIST*
%ADD10C,0.100000*%
%ADD11R,0.800000X0.750000*%
%ADD12R,0.750000X0.800000*%
%ADD13R,0.500000X0.900000*%
%ADD14R,0.900000X0.500000*%
%ADD15R,2.900000X2.000000*%
%ADD16R,1.600000X0.800000*%
%ADD17R,3.000000X2.100000*%
%ADD18C,2.000000*%
%ADD19R,1.250000X1.000000*%
%ADD20R,0.800100X0.800100*%
%ADD21R,1.200000X0.600000*%
%ADD22R,0.600000X1.200000*%
G04 APERTURE END LIST*
D10*
D11*
X37400000Y-37350000D03*
X35900000Y-37350000D03*
X45700000Y-36750000D03*
X44200000Y-36750000D03*
X56200000Y-36750000D03*
X54700000Y-36750000D03*
X66700000Y-36750000D03*
X65200000Y-36750000D03*
X77200000Y-36750000D03*
X75700000Y-36750000D03*
D12*
X86150000Y-35300000D03*
X86150000Y-36800000D03*
D11*
X59900000Y-44550000D03*
X58400000Y-44550000D03*
D12*
X60450000Y-49400000D03*
X60450000Y-50900000D03*
D11*
X59900000Y-46050000D03*
X58400000Y-46050000D03*
D13*
X58400000Y-47650000D03*
X59900000Y-47650000D03*
D14*
X85250000Y-42200000D03*
X85250000Y-43700000D03*
X83550000Y-42200000D03*
X83550000Y-43700000D03*
D13*
X43500000Y-39450000D03*
X42000000Y-39450000D03*
X54000000Y-39450000D03*
X52500000Y-39450000D03*
D14*
X60350000Y-40900000D03*
X60350000Y-39400000D03*
X75150000Y-41300000D03*
X75150000Y-39800000D03*
D13*
X80100000Y-39350000D03*
X81600000Y-39350000D03*
X80100000Y-41150000D03*
X81600000Y-41150000D03*
D15*
X83850000Y-47450000D03*
X78650000Y-47450000D03*
X54750000Y-47450000D03*
X49550000Y-47450000D03*
X39450000Y-44250000D03*
X34250000Y-44250000D03*
D16*
X87750000Y-42125000D03*
X87750000Y-43375000D03*
X87750000Y-44625000D03*
X87750000Y-45875000D03*
X87750000Y-47125000D03*
X87750000Y-48375000D03*
D17*
X90650000Y-39575000D03*
X90650000Y-50925000D03*
D18*
X58250000Y-52650000D03*
X58250000Y-50050000D03*
D19*
X38700000Y-51750000D03*
X38700000Y-49750000D03*
X44700000Y-49750000D03*
X44700000Y-51750000D03*
D20*
X40750000Y-49749240D03*
X42650000Y-49749240D03*
X41700000Y-51748220D03*
D12*
X73050000Y-43200000D03*
X73050000Y-41700000D03*
X63250000Y-39600000D03*
X63250000Y-38100000D03*
D11*
X73400000Y-47750000D03*
X74900000Y-47750000D03*
D18*
X73750000Y-50050000D03*
X76350000Y-50050000D03*
D13*
X39000000Y-47650000D03*
X40500000Y-47650000D03*
X67300000Y-52750000D03*
X65800000Y-52750000D03*
D21*
X62700000Y-49350000D03*
X62700000Y-48550000D03*
X62700000Y-47750000D03*
X62700000Y-46950000D03*
X62700000Y-46150000D03*
X62700000Y-45350000D03*
X62700000Y-44550000D03*
X62700000Y-43750000D03*
D22*
X64150000Y-42300000D03*
X64950000Y-42300000D03*
X65750000Y-42300000D03*
X66550000Y-42300000D03*
X67350000Y-42300000D03*
X68150000Y-42300000D03*
X68950000Y-42300000D03*
X69750000Y-42300000D03*
D21*
X71200000Y-43750000D03*
X71200000Y-44550000D03*
X71200000Y-45350000D03*
X71200000Y-46150000D03*
X71200000Y-46950000D03*
X71200000Y-47750000D03*
X71200000Y-48550000D03*
X71200000Y-49350000D03*
D22*
X69750000Y-50800000D03*
X68950000Y-50800000D03*
X68150000Y-50800000D03*
X67350000Y-50800000D03*
X66550000Y-50800000D03*
X65750000Y-50800000D03*
X64950000Y-50800000D03*
X64150000Y-50800000D03*
D13*
X63300000Y-52750000D03*
X61800000Y-52750000D03*
M02*
