G04 #@! TF.FileFunction,Legend,Top*
%FSLAX46Y46*%
G04 Gerber Fmt 4.6, Leading zero omitted, Abs format (unit mm)*
G04 Created by KiCad (PCBNEW (2016-02-08 BZR 6543, Git 5349eb4)-product) date Sun Feb 21 23:51:38 2016*
%MOMM*%
G01*
G04 APERTURE LIST*
%ADD10C,0.100000*%
%ADD11C,0.200000*%
%ADD12C,0.400000*%
G04 APERTURE END LIST*
D10*
D11*
X70150000Y-31350000D02*
X70150000Y-31550000D01*
X65350000Y-36150000D02*
X65350000Y-35950000D01*
X70150000Y-36150000D02*
X70150000Y-35950000D01*
X65350000Y-36150000D02*
X70150000Y-36150000D01*
X65550000Y-31350000D02*
X70150000Y-31350000D01*
X65550000Y-31350000D02*
X65350000Y-31550000D01*
X66750000Y-34050000D02*
X67450000Y-34050000D01*
X67850000Y-34050000D02*
X68750000Y-34950000D01*
X67850000Y-33450000D02*
X68750000Y-32550000D01*
X67850000Y-33750000D02*
X68450000Y-33750000D01*
X67450000Y-33450000D02*
X67450000Y-34050000D01*
X66750000Y-34050000D02*
X66750000Y-33450000D01*
X66750000Y-33450000D02*
X67450000Y-33450000D01*
D12*
X67050000Y-32150000D02*
G75*
G03X67050000Y-32150000I-200000J0D01*
G01*
D11*
X49150000Y-31350000D02*
X49150000Y-31550000D01*
X44350000Y-36150000D02*
X44350000Y-35950000D01*
X49150000Y-36150000D02*
X49150000Y-35950000D01*
X44350000Y-36150000D02*
X49150000Y-36150000D01*
X44550000Y-31350000D02*
X49150000Y-31350000D01*
X44550000Y-31350000D02*
X44350000Y-31550000D01*
X45750000Y-34050000D02*
X46450000Y-34050000D01*
X46850000Y-34050000D02*
X47750000Y-34950000D01*
X46850000Y-33450000D02*
X47750000Y-32550000D01*
X46850000Y-33750000D02*
X47450000Y-33750000D01*
X46450000Y-33450000D02*
X46450000Y-34050000D01*
X45750000Y-34050000D02*
X45750000Y-33450000D01*
X45750000Y-33450000D02*
X46450000Y-33450000D01*
D12*
X46050000Y-32150000D02*
G75*
G03X46050000Y-32150000I-200000J0D01*
G01*
D11*
X59650000Y-31350000D02*
X59650000Y-31550000D01*
X54850000Y-36150000D02*
X54850000Y-35950000D01*
X59650000Y-36150000D02*
X59650000Y-35950000D01*
X54850000Y-36150000D02*
X59650000Y-36150000D01*
X55050000Y-31350000D02*
X59650000Y-31350000D01*
X55050000Y-31350000D02*
X54850000Y-31550000D01*
X56250000Y-34050000D02*
X56950000Y-34050000D01*
X57350000Y-34050000D02*
X58250000Y-34950000D01*
X57350000Y-33450000D02*
X58250000Y-32550000D01*
X57350000Y-33750000D02*
X57950000Y-33750000D01*
X56950000Y-33450000D02*
X56950000Y-34050000D01*
X56250000Y-34050000D02*
X56250000Y-33450000D01*
X56250000Y-33450000D02*
X56950000Y-33450000D01*
D12*
X56550000Y-32150000D02*
G75*
G03X56550000Y-32150000I-200000J0D01*
G01*
D11*
X80650000Y-31350000D02*
X80650000Y-31550000D01*
X75850000Y-36150000D02*
X75850000Y-35950000D01*
X80650000Y-36150000D02*
X80650000Y-35950000D01*
X75850000Y-36150000D02*
X80650000Y-36150000D01*
X76050000Y-31350000D02*
X80650000Y-31350000D01*
X76050000Y-31350000D02*
X75850000Y-31550000D01*
X77250000Y-34050000D02*
X77950000Y-34050000D01*
X78350000Y-34050000D02*
X79250000Y-34950000D01*
X78350000Y-33450000D02*
X79250000Y-32550000D01*
X78350000Y-33750000D02*
X78950000Y-33750000D01*
X77950000Y-33450000D02*
X77950000Y-34050000D01*
X77250000Y-34050000D02*
X77250000Y-33450000D01*
X77250000Y-33450000D02*
X77950000Y-33450000D01*
D12*
X77550000Y-32150000D02*
G75*
G03X77550000Y-32150000I-200000J0D01*
G01*
D11*
X91150000Y-31350000D02*
X91150000Y-31550000D01*
X86350000Y-36150000D02*
X86350000Y-35950000D01*
X91150000Y-36150000D02*
X91150000Y-35950000D01*
X86350000Y-36150000D02*
X91150000Y-36150000D01*
X86550000Y-31350000D02*
X91150000Y-31350000D01*
X86550000Y-31350000D02*
X86350000Y-31550000D01*
X87750000Y-34050000D02*
X88450000Y-34050000D01*
X88850000Y-34050000D02*
X89750000Y-34950000D01*
X88850000Y-33450000D02*
X89750000Y-32550000D01*
X88850000Y-33750000D02*
X89450000Y-33750000D01*
X88450000Y-33450000D02*
X88450000Y-34050000D01*
X87750000Y-34050000D02*
X87750000Y-33450000D01*
X87750000Y-33450000D02*
X88450000Y-33450000D01*
D12*
X88050000Y-32150000D02*
G75*
G03X88050000Y-32150000I-200000J0D01*
G01*
D11*
X38650000Y-31350000D02*
X38650000Y-31550000D01*
X33850000Y-36150000D02*
X33850000Y-35950000D01*
X38650000Y-36150000D02*
X38650000Y-35950000D01*
X33850000Y-36150000D02*
X38650000Y-36150000D01*
X34050000Y-31350000D02*
X38650000Y-31350000D01*
X34050000Y-31350000D02*
X33850000Y-31550000D01*
X35250000Y-34050000D02*
X35950000Y-34050000D01*
X36350000Y-34050000D02*
X37250000Y-34950000D01*
X36350000Y-33450000D02*
X37250000Y-32550000D01*
X36350000Y-33750000D02*
X36950000Y-33750000D01*
X35950000Y-33450000D02*
X35950000Y-34050000D01*
X35250000Y-34050000D02*
X35250000Y-33450000D01*
X35250000Y-33450000D02*
X35950000Y-33450000D01*
D12*
X35550000Y-32150000D02*
G75*
G03X35550000Y-32150000I-200000J0D01*
G01*
M02*
